<svg width="20" height="21" viewBox="0 0 20 21" fill="none" xmlns="http://www.w3.org/2000/svg">
<path fill-rule="evenodd" clip-rule="evenodd" d="M4.35494 1.18783C3.36483 1.39959 2.52819 2.09299 2.12233 3.03818C1.85807 3.65369 1.871 3.24103 1.88408 10.636C1.89729 18.1271 1.86924 17.4369 2.18748 18.1C2.49358 18.7377 3.01084 19.255 3.64877 19.5614C4.30932 19.8786 3.7935 19.8548 9.99947 19.8548C16.2055 19.8548 15.6896 19.8786 16.3502 19.5614C16.9881 19.255 17.5052 18.7379 17.8115 18.1C18.1276 17.4419 18.1049 17.8943 18.1049 12.2376V7.19853L17.976 6.82744C17.7243 6.10307 17.7339 6.11439 15.4341 3.81467C13.1344 1.51494 13.1457 1.52451 12.4213 1.27279L12.0503 1.14385L8.33932 1.13662C5.17237 1.13041 4.5883 1.13795 4.35494 1.18783ZM4.52756 2.44592C4.05225 2.57002 3.65088 2.87838 3.38307 3.32521C3.11018 3.78057 3.12447 3.38377 3.12447 10.4993C3.12447 17.6149 3.11018 17.2181 3.38307 17.6734C3.65088 18.1203 4.05225 18.4286 4.52756 18.5527C4.76416 18.6145 5.19803 18.6199 9.97994 18.6215C15.6138 18.6233 15.4235 18.6301 15.8542 18.4119C16.1153 18.2796 16.4381 17.9731 16.6 17.7039C16.8812 17.2365 16.8697 17.4435 16.8722 12.7942L16.8745 8.62432H14.9583C12.8033 8.62432 12.7207 8.61619 12.1674 8.34935C11.581 8.06654 11.1822 7.66783 10.8994 7.08135C10.6326 6.5281 10.6245 6.44549 10.6245 4.29045V2.37432L7.70455 2.37658C5.07483 2.37861 4.75908 2.38549 4.52756 2.44592ZM11.8825 4.33834L11.894 6.26103L12.0042 6.49951C12.1436 6.80115 12.4458 7.10201 12.7534 7.24549L12.9878 7.35478L14.8921 7.36627C17.0893 7.37955 16.8939 7.42682 16.6544 6.9401C16.5212 6.66951 16.3913 6.53053 14.5547 4.6924C12.534 2.66994 12.4951 2.63584 12.022 2.46889L11.871 2.41564L11.8825 4.33834ZM5.99362 8.67853C5.73479 8.79287 5.58623 9.09178 5.64158 9.38685C5.6758 9.56924 5.87069 9.78514 6.04803 9.83709C6.14151 9.86447 6.67268 9.87478 7.58455 9.86685C8.92131 9.85529 8.98264 9.8515 9.08604 9.77424C9.291 9.62115 9.35494 9.49631 9.35494 9.24932C9.35494 9.00232 9.291 8.87748 9.08604 8.72439C8.98229 8.64689 8.92428 8.6435 7.54549 8.6349C6.41385 8.62779 6.08772 8.63697 5.99362 8.67853ZM5.99362 11.804C5.73514 11.9172 5.58619 12.2167 5.64158 12.5119C5.67584 12.6945 5.87088 12.9103 6.04803 12.9616C6.14561 12.9899 7.4249 12.9994 10.0845 12.9914C13.9471 12.9799 13.979 12.9792 14.086 12.8992C14.291 12.7462 14.3549 12.6213 14.3549 12.3743C14.3549 12.1273 14.291 12.0024 14.086 11.8494C13.9789 11.7694 13.9499 11.7688 10.0455 11.7603C6.83565 11.7533 6.09084 11.7614 5.99362 11.804ZM5.99362 14.929C5.73514 15.0422 5.58619 15.3417 5.64158 15.6369C5.67584 15.8195 5.87088 16.0353 6.04803 16.0866C6.14561 16.1149 7.4249 16.1244 10.0845 16.1164C13.9471 16.1049 13.979 16.1042 14.086 16.0242C14.291 15.8712 14.3549 15.7463 14.3549 15.4993C14.3549 15.2523 14.291 15.1274 14.086 14.9744C13.9789 14.8944 13.9499 14.8938 10.0455 14.8853C6.83565 14.8783 6.09084 14.8864 5.99362 14.929Z" fill="#3A5164"/>
</svg>
