<svg width="20" height="21" viewBox="0 0 20 21" fill="none" xmlns="http://www.w3.org/2000/svg">
<path opacity="0.5" d="M14.9997 8.83203H10.833" stroke="#3A5164" stroke-width="1.5" stroke-linecap="round"/>
<path d="M1.6665 6.29102C1.6665 5.55518 1.6665 5.18768 1.72484 4.88102C1.84919 4.22255 2.16912 3.61685 2.64288 3.14294C3.11664 2.66903 3.72224 2.34891 4.38067 2.22435C4.68817 2.16602 5.0565 2.16602 5.7915 2.16602C6.11317 2.16602 6.27484 2.16602 6.42984 2.18018C7.09738 2.24287 7.73049 2.50541 8.2465 2.93352C8.3665 3.03268 8.47984 3.14602 8.70817 3.37435L9.1665 3.83268C9.8465 4.51268 10.1865 4.85268 10.5932 5.07852C10.8167 5.20309 11.0538 5.30152 11.2998 5.37185C11.7482 5.49935 12.229 5.49935 13.1898 5.49935H13.5015C15.6948 5.49935 16.7923 5.49935 17.5048 6.14102C17.5709 6.19935 17.6332 6.26157 17.6915 6.32768C18.3332 7.04018 18.3332 8.13768 18.3332 10.331V12.166C18.3332 15.3085 18.3332 16.8802 17.3565 17.856C16.3798 18.8318 14.809 18.8327 11.6665 18.8327H8.33317C5.19067 18.8327 3.619 18.8327 2.64317 17.856C1.66734 16.8793 1.6665 15.3085 1.6665 12.166V6.29102Z" stroke="#3A5164" stroke-width="1.5"/>
</svg>
