<svg width="240" height="240" viewBox="0 0 240 240" fill="none" xmlns="http://www.w3.org/2000/svg">
<path fill-rule="evenodd" clip-rule="evenodd" d="M49.9998 110C49.9998 102.121 51.5517 94.3185 54.567 87.039C57.5823 79.7595 62.0019 73.1451 67.5734 67.5736C73.1449 62.0021 79.7593 57.5825 87.0388 54.5672C94.3183 51.5519 102.12 50 110 50C117.879 50 125.681 51.5519 132.961 54.5672C140.24 57.5825 146.855 62.0021 152.426 67.5736C157.998 73.1451 162.417 79.7595 165.433 87.039C168.448 94.3185 170 102.121 170 110C170 125.913 163.678 141.174 152.426 152.426C141.174 163.679 125.913 170 110 170C94.0868 170 78.8256 163.679 67.5734 152.426C56.3212 141.174 49.9998 125.913 49.9998 110ZM110 30C97.2684 30.0018 84.7213 33.0422 73.4012 38.8684C62.0811 44.6946 52.3151 53.1384 44.9146 63.498C37.5142 73.8577 32.6931 85.834 30.8521 98.4315C29.0111 111.029 30.2032 123.884 34.3295 135.928C38.4559 147.973 45.3971 158.858 54.5765 167.68C63.7558 176.502 74.9081 183.006 87.1066 186.651C99.305 190.296 112.197 190.977 124.712 188.638C137.226 186.298 149.002 181.006 159.06 173.2L192.93 207.07C194.816 208.892 197.342 209.9 199.964 209.877C202.586 209.854 205.094 208.802 206.948 206.948C208.802 205.094 209.854 202.586 209.877 199.964C209.899 197.342 208.891 194.816 207.07 192.93L173.2 159.06C182.381 147.235 188.059 133.07 189.59 118.178C191.12 103.285 188.441 88.2619 181.857 74.8165C175.272 61.371 165.048 50.0429 152.345 42.1202C139.642 34.1976 124.971 29.9983 110 30ZM110 150C120.608 150 130.783 145.786 138.284 138.284C145.786 130.783 150 120.609 150 110C150 99.3913 145.786 89.2172 138.284 81.7157C130.783 74.2143 120.608 70 110 70C99.3911 70 89.217 74.2143 81.7155 81.7157C74.2141 89.2172 69.9998 99.3913 69.9998 110C69.9998 120.609 74.2141 130.783 81.7155 138.284C89.217 145.786 99.3911 150 110 150Z" fill="#E7E7E7"/>
</svg>
