<svg width="20" height="21" viewBox="0 0 20 21" fill="none" xmlns="http://www.w3.org/2000/svg">
<path d="M15.2415 19.4577H4.75813C1.9248 19.4577 1.7748 17.8994 1.6498 16.641L1.31646 12.466C1.24146 11.6577 1.4748 10.8493 1.99146 10.1993C2.60813 9.44935 3.48313 9.04102 4.4248 9.04102H15.5748C16.4998 9.04102 17.3748 9.44935 17.9665 10.1577L18.1081 10.3493C18.5581 10.966 18.7581 11.716 18.6831 12.4743L18.3498 16.6327C18.2248 17.8994 18.0748 19.4577 15.2415 19.4577ZM4.4248 10.291C3.86646 10.291 3.33313 10.541 2.98313 10.9743L2.9248 11.0327C2.65813 11.3743 2.51646 11.8577 2.56646 12.3577L2.8998 16.5327C3.01646 17.7493 3.06646 18.2077 4.75813 18.2077H15.2415C16.9415 18.2077 16.9831 17.7493 17.0998 16.5243L17.4331 12.3493C17.4831 11.8577 17.3415 11.366 17.0165 10.9827L16.9331 10.8827C16.5581 10.491 16.0831 10.291 15.5665 10.291H4.4248Z" fill="#3A5164"/>
<path d="M17.0832 10.6831C16.7415 10.6831 16.4582 10.3997 16.4582 10.0581V8.56641C16.4582 6.08307 16.0248 5.64974 13.5415 5.64974H11.4165C10.4748 5.64974 10.1498 5.31641 9.7915 4.84141L8.7165 3.41641C8.34984 2.93307 8.2665 2.81641 7.5165 2.81641H6.45817C3.97484 2.81641 3.5415 3.24974 3.5415 5.73307V10.0247C3.5415 10.3664 3.25817 10.6497 2.9165 10.6497C2.57484 10.6497 2.2915 10.3664 2.2915 10.0247V5.73307C2.2915 2.54141 3.2665 1.56641 6.45817 1.56641H7.52484C8.80817 1.56641 9.20817 1.98307 9.72484 2.66641L10.7915 4.08307C11.0165 4.38307 11.0332 4.39974 11.4248 4.39974H13.5498C16.7415 4.39974 17.7165 5.37474 17.7165 8.56641V10.0581C17.7082 10.3997 17.4248 10.6831 17.0832 10.6831Z" fill="#3A5164"/>
<path d="M12.1417 15.291H7.8584C7.51673 15.291 7.2334 15.0077 7.2334 14.666C7.2334 14.3243 7.51673 14.041 7.8584 14.041H12.1417C12.4834 14.041 12.7667 14.3243 12.7667 14.666C12.7667 15.0077 12.4917 15.291 12.1417 15.291Z" fill="#3A5164"/>
</svg>
