<svg width="20" height="21" viewBox="0 0 20 21" fill="none" xmlns="http://www.w3.org/2000/svg">
<path d="M16.6922 8.13931L10.4422 14.3893C10.3842 14.4474 10.3152 14.4935 10.2393 14.525C10.1635 14.5564 10.0821 14.5726 10 14.5726C9.91788 14.5726 9.83655 14.5564 9.76067 14.525C9.6848 14.4935 9.61587 14.4474 9.55782 14.3893L3.30782 8.13931C3.19055 8.02204 3.12466 7.86298 3.12466 7.69712C3.12466 7.53127 3.19055 7.37221 3.30782 7.25494C3.4251 7.13766 3.58416 7.07178 3.75001 7.07178C3.91586 7.07178 4.07492 7.13766 4.1922 7.25494L10 13.0635L15.8078 7.25494C15.8659 7.19687 15.9348 7.15081 16.0107 7.11938C16.0866 7.08795 16.1679 7.07178 16.25 7.07178C16.3321 7.07178 16.4135 7.08795 16.4893 7.11938C16.5652 7.15081 16.6341 7.19687 16.6922 7.25494C16.7503 7.31301 16.7963 7.38194 16.8278 7.45781C16.8592 7.53369 16.8754 7.615 16.8754 7.69712C16.8754 7.77925 16.8592 7.86056 16.8278 7.93644C16.7963 8.01231 16.7503 8.08124 16.6922 8.13931Z" fill="#878787"/>
</svg>
