<svg width="26" height="24" viewBox="0 0 26 24" fill="none" xmlns="http://www.w3.org/2000/svg">
<path d="M13.0169 0C11.4411 0 9.88076 0.310375 8.42492 0.913405C6.96908 1.51643 5.64627 2.40031 4.53201 3.51456C2.28168 5.7649 1.01745 8.81701 1.01745 11.9995C1.00797 14.7701 1.96725 17.457 3.72933 19.5951L1.32944 21.995C1.16293 22.1638 1.05014 22.378 1.0053 22.6108C0.960449 22.8436 0.985556 23.0844 1.07745 23.303C1.17711 23.5189 1.33868 23.7003 1.54164 23.8242C1.7446 23.9481 1.97981 24.0089 2.2174 23.9989H13.0169C16.1994 23.9989 19.2515 22.7347 21.5018 20.4844C23.7522 18.234 25.0164 15.1819 25.0164 11.9995C25.0164 8.81701 23.7522 5.7649 21.5018 3.51456C19.2515 1.26423 16.1994 0 13.0169 0ZM13.0169 21.599H5.10927L6.22522 20.4831C6.44871 20.2583 6.57415 19.9541 6.57415 19.6371C6.57415 19.3201 6.44871 19.016 6.22522 18.7912C4.65399 17.2217 3.67554 15.156 3.45657 12.946C3.2376 10.736 3.79166 8.51843 5.02434 6.67113C6.25703 4.82383 8.09208 3.46108 10.2169 2.81504C12.3416 2.16901 14.6247 2.27966 16.677 3.12816C18.7294 3.97665 20.424 5.51049 21.4723 7.46834C22.5205 9.42619 22.8575 11.6869 22.4259 13.8654C21.9942 16.0439 20.8205 18.0053 19.1049 19.4154C17.3892 20.8256 15.2377 21.5973 13.0169 21.599Z" fill="white"/>
</svg>
