<svg width="34" height="34" viewBox="0 0 34 34" fill="none" xmlns="http://www.w3.org/2000/svg">
<rect x="0.609741" y="0.707031" width="32.6829" height="32.6829" rx="16.3415" fill="#AA2222"/>
<path d="M23.2394 22.0108C23.4155 22.1869 23.5145 22.4258 23.5145 22.6749C23.5145 22.9239 23.4155 23.1628 23.2394 23.3389C23.0633 23.5151 22.8244 23.614 22.5754 23.614C22.3263 23.614 22.0874 23.5151 21.9113 23.3389L16.9511 18.3772L11.9894 23.3374C11.8133 23.5135 11.5744 23.6124 11.3254 23.6124C11.0763 23.6124 10.8374 23.5135 10.6613 23.3374C10.4852 23.1612 10.3862 22.9224 10.3862 22.6733C10.3862 22.4242 10.4852 22.1854 10.6613 22.0092L15.623 17.0491L10.6629 12.0874C10.4867 11.9112 10.3878 11.6724 10.3878 11.4233C10.3878 11.1742 10.4867 10.9354 10.6629 10.7592C10.839 10.5831 11.0778 10.4842 11.3269 10.4842C11.576 10.4842 11.8149 10.5831 11.991 10.7592L16.9511 15.721L21.9129 10.7585C22.089 10.5823 22.3278 10.4834 22.5769 10.4834C22.826 10.4834 23.0649 10.5823 23.241 10.7585C23.4171 10.9346 23.516 11.1735 23.516 11.4225C23.516 11.6716 23.4171 11.9105 23.241 12.0866L18.2793 17.0491L23.2394 22.0108Z" fill="white"/>
</svg>
