<svg width="34" height="34" viewBox="0 0 34 34" fill="none" xmlns="http://www.w3.org/2000/svg">
<rect x="0.609741" y="0.901367" width="32.6829" height="32.6829" rx="16.3415" fill="#FEB43E"/>
<path d="M18.5137 22.8682C18.5137 23.1772 18.4221 23.4793 18.2504 23.7362C18.0787 23.9932 17.8347 24.1935 17.5492 24.3117C17.2637 24.43 16.9495 24.4609 16.6464 24.4006C16.3433 24.3404 16.0649 24.1915 15.8464 23.973C15.6279 23.7545 15.479 23.4761 15.4188 23.173C15.3585 22.8699 15.3894 22.5557 15.5077 22.2702C15.6259 21.9847 15.8262 21.7407 16.0832 21.569C16.3401 21.3973 16.6422 21.3057 16.9512 21.3057C17.3656 21.3057 17.7631 21.4703 18.0561 21.7633C18.3491 22.0563 18.5137 22.4538 18.5137 22.8682ZM16.9512 19.7432C17.1999 19.7432 17.4383 19.6444 17.6141 19.4686C17.79 19.2928 17.8887 19.0543 17.8887 18.8057V10.9932C17.8887 10.7445 17.79 10.5061 17.6141 10.3303C17.4383 10.1544 17.1999 10.0557 16.9512 10.0557C16.7026 10.0557 16.4641 10.1544 16.2883 10.3303C16.1125 10.5061 16.0137 10.7445 16.0137 10.9932V18.8057C16.0137 19.0543 16.1125 19.2928 16.2883 19.4686C16.4641 19.6444 16.7026 19.7432 16.9512 19.7432Z" fill="white"/>
</svg>
