<svg width="449" height="425" viewBox="0 0 449 425" fill="none" xmlns="http://www.w3.org/2000/svg">
<g clip-path="url(#clip0_131_72)">
<path d="M433.061 185.17C436.311 173.89 435.721 162.41 432.071 152.13C434.921 148.05 437.171 143.44 438.631 138.39C445.331 115.17 433.121 90.99 411.091 82.28C406.841 51.86 385.251 25.28 353.841 16.22C329.001 9.06004 303.531 14.44 284.171 28.61C279.321 23.54 273.121 19.63 265.901 17.55C244.121 11.27 221.371 23.83 215.091 45.61C214.041 49.25 213.531 52.92 213.491 56.54C191.571 60.96 172.801 77.11 166.181 100.08C160.231 120.71 165.501 141.92 178.371 157.19C176.711 160.2 175.341 163.43 174.351 166.87C167.221 191.6 181.481 217.42 206.211 224.55C214.361 226.9 222.631 226.91 230.311 225.01C239.401 237.54 252.571 247.26 268.591 251.88C289.221 257.83 310.331 254.13 327.131 243.47C334.651 260.96 340.831 287.2 327.531 312.93C375.871 308.19 410.791 261.82 403.671 219.33C417.461 212.98 428.521 200.91 433.061 185.17Z" fill="#EBEBEB"/>
<path d="M340.32 303.33C340.06 303.33 339.8 303.23 339.61 303.04C339.35 302.78 339.25 302.41 339.35 302.05C346.16 278.33 339.95 255.59 333.55 240.69L330.3 233.14L323.36 237.54C312.89 244.19 300.84 247.7 288.53 247.7C282.46 247.7 276.4 246.84 270.51 245.14C256.48 241.09 244.53 232.7 235.95 220.88L233.18 217.06L228.6 218.2C221.88 219.87 214.81 219.74 208.12 217.81C197.96 214.88 189.55 208.17 184.43 198.91C179.32 189.65 178.12 178.96 181.05 168.79C181.87 165.95 183.02 163.18 184.47 160.56L186.8 156.34L183.69 152.66C171.83 138.59 167.78 119.65 172.87 102C178.57 82.2503 194.65 67.4503 214.84 63.3803L220.39 62.2603L220.45 56.5903C220.48 53.5103 220.93 50.4603 221.78 47.5203C225.96 33.0203 239.4 22.9003 254.47 22.9003C257.65 22.9003 260.83 23.3503 263.92 24.2403C269.69 25.9103 274.93 29.0803 279.07 33.4103L283.31 37.8503L288.26 34.2303C300.78 25.0703 316.15 20.0303 331.54 20.0303C338.38 20.0303 345.21 21.0003 351.85 22.9203C379.6 30.9203 400.11 54.5903 404.11 83.2203L404.67 87.2603L408.47 88.7603C427.47 96.2703 437.53 116.76 431.86 136.42C430.65 140.6 428.78 144.52 426.29 148.09L424.23 151.04L425.43 154.44C428.74 163.75 429.03 173.7 426.29 183.2C422.49 196.36 413.16 207.2 400.69 212.94L395.83 215.18L396.71 220.46C399.75 238.59 394.29 258.39 381.73 274.79C371.27 288.45 356.65 298.56 340.55 303.26C340.51 303.32 340.41 303.33 340.32 303.33ZM330.77 230.68C330.87 230.68 330.97 230.69 331.07 230.72C331.35 230.81 331.58 231.01 331.69 231.28L335.4 239.9C341.78 254.73 347.95 277.19 341.77 300.83C356.78 296.04 370.37 286.42 380.2 273.59C392.42 257.63 397.74 238.39 394.8 220.81L393.79 214.78C393.72 214.33 393.95 213.9 394.36 213.71L399.92 211.15C411.87 205.65 420.8 195.27 424.44 182.67C427.06 173.57 426.78 164.05 423.61 155.13L422.23 151.25C422.12 150.95 422.17 150.61 422.35 150.34L424.71 146.96C427.08 143.57 428.86 139.84 430 135.88C435.38 117.22 425.84 97.7703 407.8 90.6403L403.46 88.9303C403.13 88.8003 402.89 88.5003 402.84 88.1403L402.19 83.5203C398.3 55.6703 378.35 32.6403 351.36 24.8603C344.9 23.0003 338.25 22.0503 331.6 22.0503C316.62 22.0503 301.67 26.9603 289.5 35.8603L283.84 40.0003C283.43 40.3003 282.87 40.2503 282.53 39.8803L277.68 34.8103C273.78 30.7303 268.85 27.7503 263.42 26.1803C260.51 25.3403 257.52 24.9103 254.52 24.9103C240.34 24.9103 227.68 34.4403 223.75 48.0903C222.95 50.8603 222.53 53.7303 222.5 56.6203L222.43 63.0903C222.42 63.5603 222.09 63.9703 221.63 64.0603L215.28 65.3403C195.82 69.2603 180.33 83.5203 174.84 102.55C169.94 119.56 173.83 137.8 185.27 151.36L188.82 155.57C189.09 155.89 189.13 156.34 188.93 156.7L186.26 161.52C184.88 164.01 183.79 166.64 183.01 169.34C180.23 178.99 181.37 189.14 186.22 197.93C191.08 206.72 199.06 213.09 208.71 215.88C215.06 217.71 221.77 217.83 228.15 216.25L233.39 214.95C233.78 214.85 234.2 215 234.44 215.33L237.61 219.7C245.92 231.16 257.5 239.29 271.1 243.21C276.81 244.86 282.69 245.69 288.57 245.69C300.5 245.69 312.17 242.28 322.33 235.84L330.26 230.81C330.39 230.73 330.58 230.68 330.77 230.68Z" fill="white"/>
<path d="M270.192 137.19L243.392 133.02L243.812 130.34C244.522 125.78 245.612 122.16 247.092 119.47C248.572 116.79 250.512 114.43 252.922 112.39C255.332 110.36 260.572 106.94 268.642 102.12C272.932 99.6105 275.282 97.0605 275.682 94.4805C276.082 91.8905 275.632 89.7605 274.332 88.0905C273.022 86.4205 270.822 85.3405 267.722 84.8605C264.382 84.3405 261.452 85.0205 258.922 86.8805C256.392 88.7505 254.392 92.3905 252.922 97.8005L226.082 90.1505C228.592 80.2305 233.502 72.7005 240.832 67.5605C248.162 62.4105 258.402 60.8705 271.572 62.9205C281.822 64.5205 289.762 67.9505 295.402 73.2005C303.062 80.3205 306.142 88.7005 304.642 98.3305C304.022 102.33 302.312 106.01 299.522 109.38C296.732 112.75 291.512 116.59 283.862 120.88C278.522 123.9 275.062 126.46 273.462 128.54C271.852 130.64 270.762 133.52 270.192 137.19ZM241.362 140L270.072 144.47L266.132 169.79L237.422 165.32L241.362 140Z" fill="white"/>
<path d="M338.589 176.42L323.709 164.37L324.919 162.88C326.969 160.35 328.919 158.52 330.779 157.41C332.629 156.3 334.659 155.55 336.849 155.16C339.039 154.77 343.459 154.54 350.089 154.47C353.599 154.46 355.939 153.74 357.099 152.3C358.259 150.86 358.739 149.4 358.539 147.92C358.339 146.44 357.369 145 355.649 143.6C353.799 142.1 351.769 141.47 349.559 141.71C347.349 141.95 344.839 143.46 342.029 146.25L328.359 132.06C333.409 126.9 339.079 124.04 345.379 123.5C351.679 122.96 358.479 125.65 365.789 131.57C371.479 136.18 375.109 141.09 376.689 146.3C378.839 153.36 377.749 159.57 373.409 164.92C371.609 167.14 369.259 168.78 366.369 169.85C363.469 170.92 358.919 171.41 352.729 171.32C348.399 171.27 345.379 171.6 343.659 172.31C341.929 173.02 340.239 174.39 338.589 176.42ZM319.999 167.91L335.939 180.82L324.549 194.88L308.609 181.97L319.999 167.91Z" fill="white"/>
<path d="M342.751 89.8L336.311 81L337.191 80.36C338.691 79.26 340.031 78.54 341.211 78.2C342.391 77.86 343.611 77.74 344.881 77.84C346.141 77.95 348.611 78.46 352.271 79.38C354.201 79.88 355.591 79.83 356.441 79.2C357.291 78.58 357.761 77.84 357.871 77C357.971 76.15 357.651 75.22 356.911 74.2C356.111 73.1 355.081 72.46 353.831 72.28C352.581 72.09 350.981 72.56 349.031 73.68L343.561 63.89C347.091 61.78 350.621 61.03 354.171 61.65C357.721 62.27 361.071 64.73 364.231 69.05C366.691 72.41 367.981 75.64 368.091 78.74C368.251 82.94 366.751 86.2 363.581 88.51C362.271 89.47 360.741 90.03 358.991 90.2C357.241 90.37 354.671 89.98 351.271 89.03C348.891 88.38 347.181 88.12 346.131 88.26C345.081 88.41 343.961 88.92 342.751 89.8ZM333.751 82.42L340.651 91.84L332.341 97.93L325.441 88.51L333.751 82.42Z" fill="white"/>
<path d="M94.3394 214.57C86.0694 214.57 77.7494 212.31 70.3794 207.91C60.2294 201.86 53.0594 192.49 50.6294 182.12C42.3894 181.53 34.7994 177.48 29.7394 170.96C26.0694 166.24 23.9794 160.62 23.6694 154.66C21.4994 153.18 19.5794 151.38 17.9594 149.31C10.0694 139.16 11.0594 124.91 20.2094 115.97C16.3994 99.7102 22.4094 82.6602 35.5994 72.4102C45.9494 64.3702 59.1294 61.5402 71.8694 64.6102C73.3494 61.2302 75.6594 58.2702 78.5794 56.0002C83.2694 52.3502 89.1094 50.7502 95.0094 51.4902C100.909 52.2302 106.169 55.2201 109.809 59.9201C110.909 61.3301 111.829 62.8801 112.569 64.5201C124.599 62.5501 136.649 67.2502 144.139 76.9002C150.839 85.5202 152.859 96.8202 149.579 107.23C150.889 108.35 152.079 109.59 153.119 110.93C161.629 121.88 159.649 137.72 148.689 146.23C145.349 148.83 141.389 150.54 137.209 151.21C135.029 159.37 130.359 166.42 123.669 171.61C115.229 178.17 104.419 180.91 93.8794 179.19C93.7694 188.9 96.0294 202.07 106.899 211.49C107.119 211.68 107.209 211.97 107.149 212.25C107.089 212.53 106.879 212.76 106.599 212.84C102.619 214 98.4794 214.57 94.3394 214.57ZM61.7294 64.9802C52.6994 64.9802 43.8894 67.9602 36.5494 73.6602C23.7294 83.6302 17.9494 100.27 21.8294 116.05C21.8994 116.32 21.8094 116.61 21.6094 116.81C12.7494 125.17 11.7094 138.73 19.1894 148.36C20.7794 150.41 22.6894 152.17 24.8494 153.59C25.0594 153.73 25.1894 153.96 25.1994 154.22C25.4194 159.99 27.4194 165.45 30.9594 170.02C35.8694 176.34 43.2794 180.2 51.2894 180.61C51.6394 180.63 51.9394 180.88 52.0194 181.23C54.2294 191.4 61.2094 200.64 71.1794 206.58C81.4594 212.7 93.6294 214.55 104.809 211.72C94.0794 201.68 92.0794 188.06 92.3394 178.25C92.3494 178.02 92.4494 177.8 92.6294 177.66C92.8094 177.52 93.0394 177.46 93.2694 177.5C103.659 179.45 114.389 176.86 122.719 170.39C129.259 165.3 133.799 158.37 135.829 150.33C135.909 150.02 136.169 149.79 136.479 149.75C140.569 149.19 144.459 147.55 147.729 145.01C157.999 137.03 159.859 122.18 151.879 111.91C150.799 110.52 149.549 109.24 148.169 108.11C147.919 107.9 147.819 107.56 147.919 107.26C151.259 97.2102 149.379 86.2301 142.889 77.8801C135.629 68.5401 123.879 64.0602 112.219 66.1902C111.849 66.2602 111.489 66.0602 111.349 65.7202C110.639 63.9902 109.699 62.3702 108.559 60.9002C105.169 56.5402 100.279 53.7502 94.7994 53.0702C89.3194 52.3802 83.8894 53.8702 79.5294 57.2602C76.6494 59.5002 74.3994 62.4701 73.0394 65.8502C72.8894 66.2202 72.4894 66.4102 72.1194 66.3202C68.6694 65.4202 65.1794 64.9802 61.7294 64.9802Z" fill="#E6E6E6"/>
<path d="M66.5875 130.96L52.7775 134.21L52.4475 132.83C51.8975 130.48 51.7075 128.51 51.8975 126.92C52.0875 125.33 52.5675 123.8 53.3375 122.34C54.1075 120.88 55.9775 118.19 58.9375 114.27C60.5275 112.21 61.1575 110.51 60.8475 109.18C60.5375 107.85 59.8975 106.9 58.9375 106.35C57.9775 105.8 56.6975 105.71 55.0975 106.08C53.3775 106.49 52.0875 107.39 51.2275 108.79C50.3675 110.19 50.1175 112.35 50.4675 115.26L35.9575 116.84C35.2175 111.54 36.1175 106.92 38.6575 102.99C41.1975 99.0497 45.8575 96.2897 52.6475 94.6897C57.9275 93.4497 62.4575 93.5497 66.2175 94.9897C71.3275 96.9297 74.4675 100.39 75.6375 105.35C76.1275 107.41 76.0175 109.53 75.3375 111.71C74.6475 113.89 72.8775 116.78 70.0075 120.37C68.0175 122.89 66.8375 124.81 66.4775 126.13C66.1075 127.46 66.1475 129.07 66.5875 130.96ZM53.1675 137.99L67.9575 134.51L71.0275 147.56L56.2375 151.04L53.1675 137.99Z" fill="#EBEBEB"/>
<path d="M101.751 101.79L92.1608 98.8802L92.4508 97.9202C92.9508 96.2902 93.5308 95.0202 94.2108 94.1202C94.8908 93.2102 95.7208 92.4502 96.7108 91.8302C97.7008 91.2102 99.7908 90.2302 102.991 88.8902C104.691 88.1902 105.681 87.3802 105.961 86.4602C106.241 85.5402 106.191 84.7302 105.801 84.0502C105.411 83.3702 104.661 82.8602 103.551 82.5202C102.361 82.1602 101.251 82.2502 100.231 82.8002C99.2108 83.3502 98.2908 84.5802 97.4708 86.4802L88.0508 82.2902C89.4808 78.7902 91.6708 76.2902 94.6108 74.7902C97.5608 73.2902 101.381 73.2502 106.091 74.6802C109.761 75.7902 112.481 77.4602 114.271 79.6802C116.701 82.6802 117.391 85.9002 116.351 89.3502C115.921 90.7802 115.101 92.0402 113.911 93.1302C112.721 94.2202 110.611 95.3502 107.591 96.5302C105.481 97.3602 104.081 98.1102 103.391 98.7902C102.701 99.4802 102.151 100.48 101.751 101.79ZM91.0708 101.32L101.341 104.44L98.5908 113.5L88.3208 110.38L91.0708 101.32Z" fill="#EBEBEB"/>
<path d="M215.999 418.56C323.082 418.56 409.889 413.492 409.889 407.24C409.889 400.988 323.082 395.92 215.999 395.92C108.917 395.92 22.1094 400.988 22.1094 407.24C22.1094 413.492 108.917 418.56 215.999 418.56Z" fill="#F5F5F5"/>
<path d="M123.609 238.44L122.689 238.05C123.519 236.1 123.989 234.47 124.139 233.09L125.129 233.2C124.979 234.68 124.479 236.39 123.609 238.44ZM123.219 226.98C121.279 222.72 117.669 220.03 112.789 219.21L112.959 218.22C118.189 219.1 122.049 221.99 124.129 226.57L123.219 226.98Z" fill="#407BFF"/>
<path d="M117.981 248.499L108.141 252.979L107.691 251.999C106.931 250.329 106.501 248.879 106.401 247.659C106.301 246.439 106.441 245.229 106.791 244.029C107.151 242.829 108.141 240.539 109.781 237.169C110.661 235.389 110.881 234.029 110.451 233.079C110.021 232.129 109.401 231.519 108.601 231.249C107.801 230.979 106.831 231.099 105.691 231.619C104.461 232.179 103.641 233.049 103.201 234.219C102.771 235.399 102.901 237.049 103.591 239.169L93.0008 242.489C91.6608 238.639 91.6508 235.059 92.9708 231.739C94.2808 228.419 97.3608 225.659 102.191 223.459C105.951 221.749 109.351 221.149 112.381 221.669C116.491 222.359 119.351 224.479 120.961 228.019C121.631 229.489 121.871 231.089 121.681 232.819C121.491 234.549 120.591 236.969 118.981 240.079C117.871 242.249 117.271 243.859 117.191 244.909C117.101 245.949 117.371 247.149 117.981 248.499ZM109.001 255.739L119.541 250.939L123.771 260.229L113.231 265.029L109.001 255.739Z" fill="#407BFF"/>
<path d="M93.6412 270.729L88.6312 277.519L87.9512 277.019C86.7912 276.169 85.9512 275.349 85.4212 274.549C84.8912 273.759 84.5212 272.879 84.3112 271.919C84.1012 270.959 83.9112 269.019 83.7412 266.109C83.6612 264.559 83.3012 263.549 82.6412 263.069C81.9812 262.589 81.3312 262.409 80.6812 262.519C80.0312 262.639 79.4212 263.089 78.8412 263.879C78.2212 264.729 77.9812 265.629 78.1312 266.599C78.2812 267.569 79.0012 268.639 80.2812 269.819L74.3112 276.129C71.9312 274.009 70.5612 271.569 70.2012 268.809C69.8312 266.049 70.8812 262.999 73.3412 259.659C75.2512 257.059 77.3412 255.359 79.6012 254.559C82.6612 253.469 85.4212 253.829 87.8612 255.629C88.8712 256.379 89.6412 257.379 90.1712 258.629C90.7012 259.879 91.0112 261.879 91.0912 264.599C91.1612 266.509 91.3612 267.829 91.7112 268.569C92.0712 269.329 92.7112 270.049 93.6412 270.729ZM90.2712 279.089L95.6312 271.809L102.051 276.539L96.6912 283.819L90.2712 279.089Z" fill="#407BFF"/>
<path d="M200.094 403.641C198.474 403.641 196.904 402.761 196.104 401.221C192.084 393.461 187.034 384.351 177.954 374.491C176.894 373.341 176.504 371.711 176.944 370.211C180.314 358.501 185.614 342.491 185.664 342.331C186.444 339.981 188.984 338.701 191.334 339.481C193.684 340.261 194.964 342.801 194.184 345.151C194.134 345.301 189.574 359.091 186.264 370.311C194.614 379.781 199.764 388.771 204.084 397.101C205.224 399.301 204.364 402.011 202.164 403.141C201.494 403.471 200.784 403.641 200.094 403.641Z" fill="#407BFF"/>
<path d="M207.563 407.24H172.773L191.213 396.78L206.663 397.38L207.563 407.24Z" fill="#263238"/>
<path d="M204.228 365.126C220.064 360.177 229.575 345.524 225.473 332.398C221.371 319.272 205.208 312.643 189.372 317.592C173.537 322.541 164.025 337.194 168.127 350.32C172.229 363.446 188.392 370.075 204.228 365.126Z" fill="#263238"/>
<path d="M117.653 324.98C115.893 324.98 114.223 323.94 113.503 322.21C112.553 319.92 113.643 317.3 115.933 316.35C118.543 315.27 118.903 312.61 118.903 312.58C119.093 310.58 120.593 308.94 122.573 308.58C123.643 308.39 124.673 308.08 125.873 307.74C131.953 305.96 139.473 303.76 163.183 310.4C186.563 297.32 186.833 272.8 186.833 271.74C186.833 269.27 188.833 267.25 191.303 267.25C191.303 267.25 191.313 267.25 191.323 267.25C193.783 267.25 195.793 269.23 195.803 271.7C195.813 273 195.663 303.78 165.763 319.2C164.743 319.73 163.563 319.84 162.463 319.52C139.873 312.99 133.503 314.85 128.393 316.35C127.943 316.48 127.483 316.62 127.013 316.75C125.903 319.6 123.603 322.89 119.373 324.64C118.813 324.87 118.233 324.98 117.653 324.98Z" fill="#263238"/>
<path d="M170.082 292.891C161.572 259.061 138.902 171.83 211.552 166.5C276.732 161.72 294.622 248.47 298.962 278.53C301.492 296.05 302.352 311.93 302.492 324.35C302.682 340.36 291.432 354.17 275.732 357.36C240.222 364.57 206.612 365.6 183.982 356.66C177.862 354.24 174.162 348.01 174.752 341.46C175.632 331.74 175.652 315.031 170.082 292.891Z" fill="#407BFF"/>
<path opacity="0.1" d="M298.961 278.521C294.861 250.201 278.741 171.481 222.301 166.561C215.731 165.991 209.251 169.221 206.231 175.081C203.711 179.961 203.791 185.871 207.561 191.721C220.001 211.001 249.671 277.671 245.191 314.001C243.151 330.531 232.781 343.731 241.801 362.311C252.691 361.411 264.111 359.721 275.741 357.351C291.441 354.171 302.691 340.361 302.501 324.341C302.351 311.931 301.501 296.041 298.961 278.521Z" fill="black"/>
<path d="M289.241 324.79C288.991 324.79 288.791 324.59 288.791 324.35C288.611 308.9 287.421 293.5 285.261 278.59C274.461 203.94 245.381 166.18 201.161 169.44C200.921 169.47 200.701 169.27 200.681 169.03C200.661 168.78 200.851 168.57 201.091 168.55C245.841 165.25 275.261 203.27 286.141 278.47C288.301 293.42 289.491 308.86 289.681 324.35C289.691 324.58 289.491 324.79 289.241 324.79Z" fill="#263238"/>
<path d="M288.552 367.522C304.388 362.573 313.9 347.921 309.797 334.794C305.695 321.668 289.532 315.039 273.697 319.988C257.861 324.937 248.349 339.59 252.451 352.716C256.553 365.842 272.716 372.471 288.552 367.522Z" fill="#263238"/>
<path d="M291.301 403.641C289.681 403.641 288.111 402.761 287.311 401.221C283.291 393.461 278.241 384.351 269.161 374.491C268.101 373.341 267.711 371.711 268.151 370.211C271.521 358.501 276.821 342.491 276.871 342.331C277.651 339.981 280.181 338.701 282.541 339.481C284.891 340.261 286.171 342.801 285.391 345.151C285.341 345.301 280.781 359.091 277.471 370.311C285.821 379.781 290.971 388.771 295.291 397.101C296.431 399.301 295.571 402.011 293.371 403.141C292.691 403.471 291.991 403.641 291.301 403.641Z" fill="#407BFF"/>
<path d="M281.881 266.911C280.271 266.911 278.711 266.041 277.901 264.511C276.751 262.321 277.591 259.611 279.781 258.461C280.641 258.001 300.171 247.331 305.661 221.691C292.641 216.241 269.241 203.951 264.121 197.771C263.621 197.171 263.291 196.451 263.161 195.691C263.041 195.021 262.201 189.711 264.161 184.691L261.801 180.131C260.661 177.931 261.521 175.221 263.721 174.081C265.921 172.941 268.631 173.801 269.771 176.001L273.171 182.561C273.901 183.961 273.831 185.641 273.001 186.991C271.931 188.721 271.791 191.251 271.881 192.901C277.641 198.111 300.921 210.441 312.311 214.671C314.311 215.411 315.511 217.461 315.181 219.561C310.111 252.331 285.041 265.831 283.971 266.391C283.291 266.741 282.581 266.911 281.881 266.911Z" fill="#263238"/>
<path d="M267.572 197.15C267.152 197.15 266.722 197.03 266.342 196.78C265.302 196.1 265.012 194.71 265.692 193.68C265.842 193.44 269.552 187.85 275.192 186.34C276.382 186.02 277.622 186.73 277.942 187.93C278.262 189.13 277.552 190.36 276.352 190.68C272.412 191.74 269.472 196.1 269.442 196.14C269.022 196.79 268.302 197.15 267.572 197.15Z" fill="#263238"/>
<path d="M298.77 407.24H263.98L282.42 396.78L297.87 397.38L298.77 407.24Z" fill="#263238"/>
<path d="M225.921 273.253C239.081 272.088 248.898 261.542 247.849 249.697C246.8 237.853 235.283 229.196 222.124 230.361C208.964 231.526 199.147 242.072 200.196 253.917C201.245 265.761 212.762 274.418 225.921 273.253Z" fill="white"/>
<path d="M221.447 265.424C224.936 264.43 226.298 258.475 224.488 252.122C222.678 245.77 218.382 241.426 214.893 242.421C211.403 243.415 210.041 249.37 211.851 255.723C213.661 262.075 217.957 266.419 221.447 265.424Z" fill="#263238"/>
<path d="M196.804 255.86C211.904 253.92 241.814 245.39 246.744 241.95C242.854 230.59 224.784 220.87 208.614 226.34C194.034 231.28 196.804 255.86 196.804 255.86Z" fill="#263238"/>
<path d="M199.734 263.16C218.474 259.6 242.844 253.62 249.814 249.78C249.384 262.01 245.834 274.4 226.694 278.58C211.064 282.01 199.734 263.16 199.734 263.16Z" fill="#263238"/>
<path d="M184.294 274.914C191.074 270.428 191.968 259.835 186.29 251.254C180.613 242.673 170.514 239.353 163.734 243.839C156.953 248.325 156.06 258.918 161.737 267.499C167.415 276.08 177.513 279.4 184.294 274.914Z" fill="white"/>
<path d="M174.343 259.681C175.483 265.041 174.503 269.511 172.153 269.661C169.803 269.821 166.973 265.601 165.843 260.241C164.703 254.881 165.683 250.411 168.033 250.261C170.373 250.111 173.203 254.321 174.343 259.681Z" fill="#263238"/>
<path d="M155.752 257.631C165.882 258.831 186.002 257.491 189.342 255.661C186.872 245.961 174.892 234.991 164.002 236.391C154.182 237.661 155.752 257.631 155.752 257.631Z" fill="#263238"/>
<path d="M157.633 263.941C170.223 264.511 186.603 264.191 191.313 262.421C190.883 272.031 188.363 281.191 175.503 281.041C164.993 280.921 157.633 263.941 157.633 263.941Z" fill="#263238"/>
<path d="M230.091 220.301C211.201 220.301 198.651 210.971 198.031 210.501C196.061 209.001 195.671 206.191 197.171 204.211C198.661 202.241 201.471 201.851 203.441 203.341C203.661 203.501 218.571 214.381 239.281 210.451C241.721 209.991 244.061 211.591 244.521 214.021C244.981 216.451 243.381 218.801 240.951 219.261C237.141 219.991 233.511 220.301 230.091 220.301Z" fill="#263238"/>
<path d="M149.881 212.57C149.381 212.57 148.861 212.48 148.361 212.31C146.031 211.47 144.821 208.9 145.661 206.57C148.041 199.95 151.981 195.65 157.381 193.8C167.171 190.43 177.711 196.98 178.151 197.26C180.241 198.58 180.871 201.35 179.551 203.45C178.231 205.54 175.471 206.17 173.371 204.85C171.331 203.58 165.001 200.64 160.271 202.29C157.551 203.24 155.531 205.63 154.101 209.6C153.441 211.43 151.721 212.57 149.881 212.57Z" fill="#263238"/>
<path d="M185.231 288.251C185.111 288.251 184.981 288.231 184.861 288.201C184.151 287.991 183.741 287.271 183.941 286.561C183.971 286.441 184.821 283.531 188.501 281.631C193.651 278.981 201.491 279.531 211.811 283.261C212.511 283.511 212.871 284.291 212.621 284.981C212.371 285.681 211.601 286.041 210.901 285.791C199.071 281.501 192.921 282.431 189.851 283.961C187.171 285.301 186.561 287.211 186.531 287.291C186.351 287.871 185.811 288.251 185.231 288.251Z" fill="#263238"/>
<path d="M142.884 283.32C116.784 285.66 98.0938 296.47 98.0938 296.47C105.824 295.01 133.454 329.2 140.554 355.56C153.654 350.7 168.934 347.39 185.234 344.81C175.364 317.64 157.314 286.85 142.884 283.32Z" fill="#407BFF"/>
<path opacity="0.6" d="M142.884 283.32C116.784 285.66 98.0938 296.47 98.0938 296.47C105.824 295.01 133.454 329.2 140.554 355.56C153.654 350.7 168.934 347.39 185.234 344.81C175.364 317.64 157.314 286.85 142.884 283.32Z" fill="white"/>
<path d="M142.882 283.321C125.802 281.391 98.072 295.691 98.072 295.691C93.162 298.821 94.492 304.701 97.172 307.181C99.742 303.491 128.402 293.891 139.182 292.601C133.822 287.641 138.802 284.041 142.882 283.321Z" fill="#407BFF"/>
<path opacity="0.2" d="M142.882 283.321C125.802 281.391 98.072 295.691 98.072 295.691C93.162 298.821 94.492 304.701 97.172 307.181C99.742 303.491 128.402 293.891 139.182 292.601C133.822 287.641 138.802 284.041 142.882 283.321Z" fill="white"/>
<path d="M117.664 324.981C116.194 324.981 114.764 324.261 113.904 322.941C110.654 317.961 112.684 310.351 113.124 308.881C113.834 306.511 116.334 305.161 118.704 305.871C121.074 306.581 122.424 309.071 121.724 311.441C120.994 313.951 120.844 317.161 121.424 318.041C122.774 320.111 122.194 322.891 120.114 324.251C119.354 324.751 118.504 324.981 117.664 324.981Z" fill="#263238"/>
</g>
<defs>
<clipPath id="clip0_131_72">
<rect width="449" height="425" fill="white"/>
</clipPath>
</defs>
</svg>
