<svg width="110" height="45" viewBox="0 0 110 45" fill="none" xmlns="http://www.w3.org/2000/svg">
<path d="M105.306 13.9424C102.86 11.3391 99.3113 9.95019 95.6439 9.95019C91.9766 10.009 88.4849 11.5118 86.1578 14.1151C83.655 16.6595 82.4332 19.7258 82.4332 23.3119V34.6491C82.4332 36.8463 80.6291 38.6982 78.3 38.6982C76.9617 38.8709 75.6235 38.4667 74.6326 37.5996C73.7602 36.8483 73.2944 35.8065 73.2944 34.6491L73.3536 15.6766H82.0246V10.6447H73.2944V0H68.2908V15.0391C65.4978 12.1474 61.6568 10.4112 57.4644 10.0071C52.518 9.65984 47.8025 11.2214 44.4865 14.4603C41.6936 16.9479 39.8895 20.0711 39.1908 23.6003L36.7452 37.9469C36.6287 39.0455 35.5234 39.1043 35.3477 39.1043C34.8247 39.1632 33.893 38.8728 33.7766 37.89C32.5193 30.4901 31.2639 23.0922 30.0066 15.6923C29.4243 11.9904 26.282 10.3131 23.5463 10.3131H23.4871C20.7514 10.3131 17.7255 11.9904 17.2005 15.6923C15.9589 23.0922 14.7174 30.4901 13.4778 37.89C13.3614 38.7571 12.8956 39.1043 11.9639 39.1043C11.0915 39.1043 10.6829 38.7571 10.5092 37.89L8.99727 29.0403L5.91416 10.6447H0.734863L3.87718 29.0403L5.5648 38.7002C6.14707 42.4021 9.28939 44.0794 12.0251 44.0794H12.0823C14.8181 44.0794 17.8439 42.4021 18.369 38.7002C19.6105 31.3003 20.852 23.9024 22.0916 16.5026C22.208 15.6354 22.6739 15.2882 23.6055 15.2882C24.4779 15.2882 24.8865 15.6354 25.0602 16.5026C26.3175 23.9024 27.5729 31.3003 28.8302 38.7002C29.4697 42.4021 32.5548 44.0794 35.2905 44.0794C35.2905 44.0794 35.2905 44.0794 35.3497 44.0794C38.0854 44.0794 41.1113 42.4021 41.7508 38.7002C42.0429 37.0798 42.3903 34.7668 42.7989 32.395C43.3812 29.2718 43.9042 25.9172 44.2536 23.8926C46.1741 16.893 52.4015 14.4643 57.64 15.1587C62.9358 15.8532 68.2335 19.8435 68.2335 27.1335C68.4072 32.8599 64.4497 36.5618 60.7251 38.1234C56.9433 39.685 51.4719 39.8596 47.3979 35.6359L46.8748 35.0571L43.3239 38.5864L43.847 39.1651C46.9321 42.404 51.239 44.1971 55.8952 44.1971C56.361 44.1971 56.8268 44.1971 57.2926 44.1383C61.9489 43.791 66.1965 41.7096 69.0487 38.353C70.3297 41.3035 73.2983 43.4438 76.5571 43.6753V43.7341H79.1764V43.6753C81.4463 43.5026 83.3076 42.6336 84.8215 41.072C86.5683 39.2789 87.498 37.1386 87.498 34.6511V22.3291C87.6717 20.4202 88.4296 18.8587 89.9416 17.4128C92.6773 14.5212 96.4019 14.578 99.0211 15.6766C101.64 16.7184 104.376 19.3216 104.26 23.3119V43.7322H109.265V23.3119C109.263 19.7258 107.925 16.5438 105.306 13.9424Z" fill="#3A5164"/>
</svg>
