<svg width="157" height="64" viewBox="0 0 157 64" fill="none" xmlns="http://www.w3.org/2000/svg">
<g clip-path="url(#clip0_174_1010)">
<path d="M154.791 9.01208V8.98016C155.134 8.87908 155.369 8.63968 155.369 8.33644C155.369 8.06511 155.251 7.84699 155.096 7.72463C154.893 7.60759 154.652 7.52247 154.128 7.52247C153.668 7.52247 153.31 7.55439 153.054 7.60759V10.3846H153.701V9.26744H154.005C154.364 9.26744 154.535 9.40044 154.583 9.709C154.668 10.0282 154.717 10.2836 154.802 10.3846H155.503C155.433 10.2836 155.385 10.1133 155.299 9.68772C155.214 9.31532 155.059 9.11316 154.791 9.01208ZM154.021 8.80992H153.717V8.01191C153.786 7.99595 153.904 7.97999 154.075 7.97999C154.481 7.97999 154.668 8.15023 154.668 8.4056C154.668 8.69288 154.38 8.80992 154.021 8.80992ZM154.144 6.1499C152.546 6.1499 151.268 7.38415 151.268 8.92696C151.268 10.4698 152.546 11.7359 154.144 11.7359C155.743 11.7359 157.005 10.5017 157.005 8.92696C157.005 7.35223 155.765 6.1499 154.144 6.1499ZM154.16 11.1454C152.898 11.1454 151.984 10.1612 151.984 8.92696C151.984 7.69271 152.904 6.70851 154.144 6.70851C155.385 6.70851 156.289 7.70867 156.289 8.94292C156.289 10.1772 155.385 11.1454 154.16 11.1454Z" fill="#FAFAFA"/>
<path d="M137.295 14.4066C131.991 14.4918 126.938 16.6677 123.574 20.4396C119.954 24.1263 118.184 28.5633 118.184 33.7556V50.1732C118.184 53.3546 115.575 56.0359 112.206 56.0359C110.271 56.2859 108.335 55.7007 106.902 54.4452C105.64 53.3546 104.966 51.849 104.966 50.1732L105.052 22.7006H117.596V15.4121H104.966V0H97.726V21.7802C93.6835 17.5933 88.1277 15.077 82.0639 14.4918C74.9093 13.9864 68.0863 16.2527 63.2898 20.9396C59.2473 24.5413 56.6379 29.0633 55.6272 34.1759L52.0874 54.9506C51.9163 56.5413 50.3174 56.6264 50.0661 56.6264C49.3068 56.7115 47.9593 56.2913 47.7935 54.8655C45.9755 44.1509 44.1574 33.4364 42.3394 22.7219C41.4945 17.3593 36.9494 14.9333 32.9924 14.9333H32.9069C28.9499 14.9333 24.5705 17.3646 23.8112 22.7219C22.0145 33.4364 20.2179 44.1509 18.4266 54.8655C18.2554 56.121 17.5817 56.6264 16.2342 56.6264C14.9722 56.6264 14.3787 56.121 14.1274 54.8655L11.9404 42.0495L7.49147 15.4121H0L4.54515 42.0495L6.98883 56.0359C7.83369 61.3985 12.3788 63.8244 16.3358 63.8244H16.416C20.3729 63.8244 24.7523 61.3932 25.5116 56.0359C27.3083 45.3214 29.105 34.6068 30.8963 23.8923C31.0674 22.6367 31.7412 22.1313 33.0887 22.1313C34.3506 22.1313 34.9441 22.6367 35.1955 23.8923C37.0135 34.6068 38.8316 45.3214 40.6496 56.0359C41.5747 61.3985 46.0396 63.8244 49.9966 63.8244H50.0822C54.0391 63.8244 58.4185 61.3932 59.3436 56.0359C59.7232 53.9398 61.9102 40.8206 62.7337 35.9528C62.9529 34.6653 63.2845 33.3992 63.7871 32.1968C67.2361 23.9029 75.3852 21.0248 82.3313 21.9451C89.9939 22.9506 97.6565 28.7282 97.6565 39.2831C97.9078 47.577 92.1809 52.9343 86.7962 55.1953C81.326 57.4563 73.4121 57.7117 67.5195 51.5937L66.7602 50.7531L61.6215 55.8657L62.3808 56.7062C66.8457 61.3985 73.0752 63.9947 79.8074 63.9947C80.4812 63.9947 81.1549 63.9947 81.8287 63.9095C88.5662 63.4041 94.7101 60.393 98.8328 55.5305C100.688 59.8025 104.982 62.9041 109.693 63.2392V63.3243H113.484V63.2392C116.767 62.9892 119.462 61.7283 121.649 59.4673C124.179 56.8711 125.521 53.7696 125.521 50.1679V32.3245C125.772 29.5581 126.868 27.2971 129.055 25.2063C133.012 21.0194 138.402 21.0992 142.188 22.6899C145.979 24.2008 149.936 27.9674 149.765 33.745V63.3137H157.005V33.745C157.005 28.5526 155.064 23.9455 151.278 20.1789C147.739 16.407 142.605 14.396 137.301 14.396L137.295 14.4066Z" fill="#FAFAFA"/>
</g>
<defs>
<clipPath id="clip0_174_1010">
<rect width="157" height="64" fill="white"/>
</clipPath>
</defs>
</svg>
