<svg width="14" height="15" viewBox="0 0 14 15" fill="none" xmlns="http://www.w3.org/2000/svg">
<path d="M13 8.50391H8V13.5039C8 13.7691 7.89464 14.0235 7.70711 14.211C7.51957 14.3985 7.26522 14.5039 7 14.5039C6.73478 14.5039 6.48043 14.3985 6.29289 14.211C6.10536 14.0235 6 13.7691 6 13.5039V8.50391H1C0.734784 8.50391 0.48043 8.39855 0.292893 8.21101C0.105357 8.02348 0 7.76912 0 7.50391C0 7.23869 0.105357 6.98434 0.292893 6.7968C0.48043 6.60926 0.734784 6.50391 1 6.50391H6V1.50391C6 1.23869 6.10536 0.984336 6.29289 0.796799C6.48043 0.609263 6.73478 0.503906 7 0.503906C7.26522 0.503906 7.51957 0.609263 7.70711 0.796799C7.89464 0.984336 8 1.23869 8 1.50391V6.50391H13C13.2652 6.50391 13.5196 6.60926 13.7071 6.7968C13.8946 6.98434 14 7.23869 14 7.50391C14 7.76912 13.8946 8.02348 13.7071 8.21101C13.5196 8.39855 13.2652 8.50391 13 8.50391Z" fill="#3A5164"/>
</svg>
