<svg width="25" height="21" viewBox="0 0 25 21" fill="none" xmlns="http://www.w3.org/2000/svg">
<g clip-path="url(#clip0_428_6378)">
<path d="M16.5 14.3887L12.5 10.3887M12.5 10.3887L8.5 14.3887M12.5 10.3887V19.3887" stroke="#4B6E98" stroke-width="2" stroke-linecap="round" stroke-linejoin="round"/>
<path d="M20.8904 16.7782C21.8658 16.2464 22.6363 15.405 23.0803 14.3868C23.5244 13.3685 23.6167 12.2314 23.3427 11.1549C23.0686 10.0783 22.4439 9.12368 21.5671 8.44161C20.6903 7.75955 19.6113 7.3889 18.5004 7.38817H17.2404C16.9378 6.21741 16.3736 5.1305 15.5904 4.20916C14.8072 3.28782 13.8253 2.55602 12.7185 2.06877C11.6118 1.58153 10.409 1.35153 9.20057 1.39605C7.99213 1.44057 6.80952 1.75847 5.74163 2.32583C4.67374 2.8932 3.74836 3.69527 3.03507 4.67175C2.32178 5.64823 1.83914 6.7737 1.62343 7.96356C1.40772 9.15342 1.46455 10.3767 1.78966 11.5414C2.11477 12.7062 2.69969 13.782 3.50045 14.6882" stroke="#4B6E98" stroke-width="2" stroke-linecap="round" stroke-linejoin="round"/>
<path d="M16.5 14.3887L12.5 10.3887L8.5 14.3887" stroke="#4B6E98" stroke-width="2" stroke-linecap="round" stroke-linejoin="round"/>
</g>
<defs>
<clipPath id="clip0_428_6378">
<rect width="24" height="20" fill="white" transform="translate(0.5 0.387695)"/>
</clipPath>
</defs>
</svg>
