<svg width="24" height="25" viewBox="0 0 24 25" fill="none" xmlns="http://www.w3.org/2000/svg">
<path d="M18.29 22.9473H5.71001C2.31001 22.9473 2.13001 21.0773 1.98001 19.5673L1.58001 14.5573C1.49001 13.5873 1.77001 12.6173 2.39001 11.8373C3.13001 10.9373 4.18001 10.4473 5.31001 10.4473H18.69C19.8 10.4473 20.85 10.9373 21.56 11.7873L21.73 12.0173C22.27 12.7573 22.51 13.6573 22.42 14.5673L22.02 19.5573C21.87 21.0773 21.69 22.9473 18.29 22.9473ZM5.31001 11.9473C4.64001 11.9473 4.00001 12.2473 3.58001 12.7673L3.51001 12.8373C3.19001 13.2473 3.02001 13.8273 3.08001 14.4273L3.48001 19.4373C3.62001 20.8973 3.68001 21.4473 5.71001 21.4473H18.29C20.33 21.4473 20.38 20.8973 20.52 19.4273L20.92 14.4173C20.98 13.8273 20.81 13.2373 20.42 12.7773L20.32 12.6573C19.87 12.1873 19.3 11.9473 18.68 11.9473H5.31001Z" fill="#1F1F1F"/>
<path d="M20.5 12.4171C20.09 12.4171 19.75 12.0771 19.75 11.6671V9.87705C19.75 6.89705 19.23 6.37705 16.25 6.37705H13.7C12.57 6.37705 12.18 5.97705 11.75 5.40705L10.46 3.69705C10.02 3.11705 9.92 2.97705 9.02 2.97705H7.75C4.77 2.97705 4.25 3.49705 4.25 6.47705V11.6271C4.25 12.0371 3.91 12.3771 3.5 12.3771C3.09 12.3771 2.75 12.0371 2.75 11.6271V6.47705C2.75 2.64705 3.92 1.47705 7.75 1.47705H9.03C10.57 1.47705 11.05 1.97705 11.67 2.79705L12.95 4.49705C13.22 4.85705 13.24 4.87705 13.71 4.87705H16.26C20.09 4.87705 21.26 6.04705 21.26 9.87705V11.6671C21.25 12.0771 20.91 12.4171 20.5 12.4171Z" fill="#1F1F1F"/>
<path d="M14.57 17.9473H9.42999C9.01999 17.9473 8.67999 17.6073 8.67999 17.1973C8.67999 16.7873 9.01999 16.4473 9.42999 16.4473H14.57C14.98 16.4473 15.32 16.7873 15.32 17.1973C15.32 17.6073 14.99 17.9473 14.57 17.9473Z" fill="#292D32"/>
</svg>
