<svg width="24" height="25" viewBox="0 0 24 25" fill="none" xmlns="http://www.w3.org/2000/svg">
<path d="M17.79 22.9472H6.21C3.47 22.9472 1.25 20.7172 1.25 17.9772V10.5672C1.25 9.20724 2.09 7.49724 3.17 6.65724L8.56 2.45724C10.18 1.19724 12.77 1.13724 14.45 2.31724L20.63 6.64724C21.82 7.47724 22.75 9.25724 22.75 10.7072V17.9872C22.75 20.7172 20.53 22.9472 17.79 22.9472ZM9.48 3.63724L4.09 7.83724C3.38 8.39724 2.75 9.66724 2.75 10.5672V17.9772C2.75 19.8872 4.3 21.4472 6.21 21.4472H17.79C19.7 21.4472 21.25 19.8972 21.25 17.9872V10.7072C21.25 9.74724 20.56 8.41724 19.77 7.87724L13.59 3.54724C12.45 2.74724 10.57 2.78724 9.48 3.63724Z" fill="#1F1F1F"/>
<path d="M12 18.9473C11.59 18.9473 11.25 18.6073 11.25 18.1973V15.1973C11.25 14.7873 11.59 14.4473 12 14.4473C12.41 14.4473 12.75 14.7873 12.75 15.1973V18.1973C12.75 18.6073 12.41 18.9473 12 18.9473Z" fill="#292D32"/>
</svg>
