<svg width="24" height="25" viewBox="0 0 24 25" fill="none" xmlns="http://www.w3.org/2000/svg">
<g clip-path="url(#clip0_436_438)">
<path fill-rule="evenodd" clip-rule="evenodd" d="M5.22574 1.02364C4.0376 1.27775 3.03363 2.10983 2.5466 3.24406C2.22949 3.98267 2.245 3.48748 2.26071 12.3615C2.27655 21.3507 2.24289 20.5226 2.62478 21.3183C2.9921 22.0835 3.61281 22.7043 4.37833 23.0719C5.17099 23.4526 4.552 23.424 11.9992 23.424C19.4463 23.424 18.8274 23.4526 19.62 23.0719C20.3855 22.7043 21.006 22.0837 21.3737 21.3183C21.7529 20.5286 21.7257 21.0714 21.7257 14.2834V8.23648L21.571 7.79117C21.2689 6.92192 21.2804 6.93552 18.5208 4.17584C15.7611 1.41617 15.7747 1.42766 14.9054 1.12559L14.4601 0.970859L10.007 0.962187C6.20664 0.954734 5.50577 0.963781 5.22574 1.02364ZM5.43288 2.53334C4.8625 2.68227 4.38086 3.0523 4.05949 3.5885C3.73202 4.13492 3.74917 3.65876 3.74917 12.1974C3.74917 20.7361 3.73202 20.2599 4.05949 20.8063C4.38086 21.3425 4.8625 21.7126 5.43288 21.8615C5.7168 21.9356 6.23744 21.9422 11.9757 21.944C18.7363 21.9462 18.508 21.9544 19.0248 21.6925C19.3381 21.5337 19.7255 21.166 19.9198 20.843C20.2572 20.2821 20.2435 20.5305 20.2465 14.9513L20.2492 9.94742H17.9498C15.3638 9.94742 15.2646 9.93767 14.6007 9.61747C13.897 9.27809 13.4185 8.79964 13.0791 8.09586C12.7589 7.43197 12.7492 7.33283 12.7492 4.74678V2.44742L9.24527 2.45014C6.0896 2.45258 5.71071 2.46083 5.43288 2.53334ZM14.2588 4.80425L14.2726 7.11148L14.4048 7.39766C14.5721 7.75962 14.9347 8.12066 15.3039 8.29283L15.5851 8.42398L17.8703 8.43777C20.5069 8.4537 20.2725 8.51042 19.985 7.92636C19.8252 7.60166 19.6694 7.43487 17.4655 5.22912C15.0406 2.80217 14.994 2.76125 14.4262 2.56091L14.245 2.49702L14.2588 4.80425ZM7.19214 10.0125C6.88155 10.1497 6.70328 10.5084 6.76971 10.8625C6.81077 11.0813 7.04463 11.3404 7.25744 11.4027C7.36961 11.4356 8.00702 11.448 9.10127 11.4385C10.7054 11.4246 10.779 11.42 10.903 11.3273C11.149 11.1436 11.2257 10.9938 11.2257 10.6974C11.2257 10.401 11.149 10.2512 10.903 10.0675C10.7785 9.97451 10.7089 9.97044 9.05439 9.96012C7.69642 9.95159 7.30507 9.96261 7.19214 10.0125ZM7.19214 13.763C6.88197 13.8989 6.70324 14.2582 6.76971 14.6125C6.81082 14.8316 7.04486 15.0906 7.25744 15.1522C7.37453 15.1861 8.90969 15.1975 12.1012 15.1879C16.7363 15.1741 16.7746 15.1732 16.903 15.0773C17.149 14.8937 17.2257 14.7439 17.2257 14.4474C17.2257 14.151 17.149 14.0012 16.903 13.8175C16.7745 13.7216 16.7396 13.7208 12.0543 13.7106C8.20258 13.7022 7.30882 13.7119 7.19214 13.763ZM7.19214 17.513C6.88197 17.6489 6.70324 18.0082 6.76971 18.3625C6.81082 18.5816 7.04486 18.8406 7.25744 18.9022C7.37453 18.9361 8.90969 18.9475 12.1012 18.9379C16.7363 18.9241 16.7746 18.9232 16.903 18.8273C17.149 18.6437 17.2257 18.4939 17.2257 18.1974C17.2257 17.901 17.149 17.7512 16.903 17.5675C16.7745 17.4716 16.7396 17.4708 12.0543 17.4606C8.20258 17.4522 7.30882 17.4619 7.19214 17.513Z" fill="#1F1F1F"/>
</g>
<defs>
<clipPath id="clip0_436_438">
<rect width="24" height="24" fill="white" transform="translate(0 0.197266)"/>
</clipPath>
</defs>
</svg>
