<svg width="24" height="25" viewBox="0 0 24 25" fill="none" xmlns="http://www.w3.org/2000/svg">
<path d="M12 22.9473C6.07 22.9473 1.25 18.1273 1.25 12.1973C1.25 6.26727 6.07 1.44727 12 1.44727C17.93 1.44727 22.75 6.26727 22.75 12.1973C22.75 18.1273 17.93 22.9473 12 22.9473ZM12 2.94727C6.9 2.94727 2.75 7.09727 2.75 12.1973C2.75 17.2973 6.9 21.4473 12 21.4473C17.1 21.4473 21.25 17.2973 21.25 12.1973C21.25 7.09727 17.1 2.94727 12 2.94727Z" fill="#1F1F1F"/>
<path d="M15.71 16.127C15.58 16.127 15.45 16.097 15.33 16.017L12.23 14.167C11.46 13.707 10.89 12.697 10.89 11.807V7.70703C10.89 7.29703 11.23 6.95703 11.64 6.95703C12.05 6.95703 12.39 7.29703 12.39 7.70703V11.807C12.39 12.167 12.69 12.697 13 12.877L16.1 14.727C16.46 14.937 16.57 15.397 16.36 15.757C16.21 15.997 15.96 16.127 15.71 16.127Z" fill="#292D32"/>
</svg>
