<svg width="24" height="25" viewBox="0 0 24 25" fill="none" xmlns="http://www.w3.org/2000/svg">
<path d="M17.66 22.8671C17.13 22.8671 16.45 22.6971 15.6 22.1971L12.61 20.4271C12.3 20.2471 11.7 20.2471 11.4 20.4271L8.4 22.1971C6.63 23.2471 5.59 22.8271 5.12 22.4871C4.66 22.1471 3.94 21.2771 4.41 19.2771L5.12 16.2071C5.2 15.8871 5.04 15.3371 4.8 15.0971L2.32 12.6171C1.08 11.3771 1.18 10.3171 1.35 9.79709C1.52 9.27709 2.06 8.35709 3.78 8.06709L6.97 7.53709C7.27 7.48709 7.7 7.16709 7.83 6.89709L9.6 3.36709C10.4 1.75709 11.45 1.51709 12 1.51709C12.55 1.51709 13.6 1.75709 14.4 3.36709L16.16 6.88709C16.3 7.15709 16.73 7.47709 17.03 7.52709L20.22 8.05709C21.95 8.34709 22.49 9.26709 22.65 9.78709C22.81 10.3071 22.91 11.3671 21.68 12.6071L19.2 15.0971C18.96 15.3371 18.81 15.8771 18.88 16.2071L19.59 19.2771C20.05 21.2771 19.34 22.1471 18.88 22.4871C18.63 22.6671 18.23 22.8671 17.66 22.8671ZM12 18.7871C12.49 18.7871 12.98 18.9071 13.37 19.1371L16.36 20.9071C17.23 21.4271 17.78 21.4271 17.99 21.2771C18.2 21.1271 18.35 20.5971 18.13 19.6171L17.42 16.5471C17.23 15.7171 17.54 14.6471 18.14 14.0371L20.62 11.5571C21.11 11.0671 21.33 10.5871 21.23 10.2571C21.12 9.92709 20.66 9.65709 19.98 9.54709L16.79 9.01709C16.02 8.88709 15.18 8.26709 14.83 7.56709L13.07 4.04709C12.75 3.40709 12.35 3.02709 12 3.02709C11.65 3.02709 11.25 3.40709 10.94 4.04709L9.17 7.56709C8.82 8.26709 7.98 8.88709 7.21 9.01709L4.03 9.54709C3.35 9.65709 2.89 9.92709 2.78 10.2571C2.67 10.5871 2.9 11.0771 3.39 11.5571L5.87 14.0371C6.47 14.6371 6.78 15.7171 6.59 16.5471L5.88 19.6171C5.65 20.6071 5.81 21.1271 6.02 21.2771C6.23 21.4271 6.77 21.4171 7.65 20.9071L10.64 19.1371C11.02 18.9071 11.51 18.7871 12 18.7871Z" fill="#1F1F1F"/>
</svg>
