<svg width="24" height="25" viewBox="0 0 24 25" fill="none" xmlns="http://www.w3.org/2000/svg">
<path d="M21 6.92724C20.98 6.92724 20.95 6.92724 20.92 6.92724C15.63 6.39724 10.35 6.19724 5.11998 6.72724L3.07998 6.92724C2.65998 6.96724 2.28998 6.66724 2.24998 6.24724C2.20998 5.82724 2.50998 5.46724 2.91998 5.42724L4.95998 5.22724C10.28 4.68724 15.67 4.89724 21.07 5.42724C21.48 5.46724 21.78 5.83724 21.74 6.24724C21.71 6.63724 21.38 6.92724 21 6.92724Z" fill="#1F1F1F"/>
<path d="M8.50001 5.91727C8.46001 5.91727 8.42001 5.91727 8.37001 5.90727C7.97001 5.83727 7.69001 5.44727 7.76001 5.04727L7.98001 3.73727C8.14001 2.77727 8.36001 1.44727 10.69 1.44727H13.31C15.65 1.44727 15.87 2.82727 16.02 3.74727L16.24 5.04727C16.31 5.45727 16.03 5.84727 15.63 5.90727C15.22 5.97727 14.83 5.69727 14.77 5.29727L14.55 3.99727C14.41 3.12727 14.38 2.95727 13.32 2.95727H10.7C9.64001 2.95727 9.62001 3.09727 9.47001 3.98727L9.24001 5.28727C9.18001 5.65727 8.86001 5.91727 8.50001 5.91727Z" fill="#1F1F1F"/>
<path d="M15.21 22.9473H8.79002C5.30002 22.9473 5.16002 21.0173 5.05002 19.4573L4.40002 9.38734C4.37002 8.97734 4.69002 8.61734 5.10002 8.58734C5.52002 8.56734 5.87002 8.87734 5.90002 9.28734L6.55002 19.3573C6.66002 20.8773 6.70002 21.4473 8.79002 21.4473H15.21C17.31 21.4473 17.35 20.8773 17.45 19.3573L18.1 9.28734C18.13 8.87734 18.49 8.56734 18.9 8.58734C19.31 8.61734 19.63 8.96734 19.6 9.38734L18.95 19.4573C18.84 21.0173 18.7 22.9473 15.21 22.9473Z" fill="#292D32"/>
<path d="M13.66 17.4473H10.33C9.92002 17.4473 9.58002 17.1073 9.58002 16.6973C9.58002 16.2873 9.92002 15.9473 10.33 15.9473H13.66C14.07 15.9473 14.41 16.2873 14.41 16.6973C14.41 17.1073 14.07 17.4473 13.66 17.4473Z" fill="#292D32"/>
<path d="M14.5 13.4473H9.5C9.09 13.4473 8.75 13.1073 8.75 12.6973C8.75 12.2873 9.09 11.9473 9.5 11.9473H14.5C14.91 11.9473 15.25 12.2873 15.25 12.6973C15.25 13.1073 14.91 13.4473 14.5 13.4473Z" fill="#292D32"/>
</svg>
