<svg width="24" height="25" viewBox="0 0 24 25" fill="none" xmlns="http://www.w3.org/2000/svg">
<path d="M9.15963 11.8173C9.12963 11.8173 9.10963 11.8173 9.07963 11.8173C9.02963 11.8073 8.95963 11.8073 8.89963 11.8173C5.99963 11.7273 3.80963 9.44727 3.80963 6.63727C3.80963 3.77727 6.13963 1.44727 8.99963 1.44727C11.8596 1.44727 14.1896 3.77727 14.1896 6.63727C14.1796 9.44727 11.9796 11.7273 9.18963 11.8173C9.17963 11.8173 9.16963 11.8173 9.15963 11.8173ZM8.99963 2.94727C6.96963 2.94727 5.30963 4.60727 5.30963 6.63727C5.30963 8.63727 6.86963 10.2473 8.85963 10.3173C8.91963 10.3073 9.04963 10.3073 9.17963 10.3173C11.1396 10.2273 12.6796 8.61727 12.6896 6.63727C12.6896 4.60727 11.0296 2.94727 8.99963 2.94727Z" fill="#1F1F1F"/>
<path d="M16.5396 11.9473C16.5096 11.9473 16.4796 11.9473 16.4496 11.9373C16.0396 11.9773 15.6196 11.6873 15.5796 11.2773C15.5396 10.8673 15.7896 10.4973 16.1996 10.4473C16.3196 10.4373 16.4496 10.4373 16.5596 10.4373C18.0196 10.3573 19.1596 9.15727 19.1596 7.68727C19.1596 6.16727 17.9296 4.93727 16.4096 4.93727C15.9996 4.94727 15.6596 4.60727 15.6596 4.19727C15.6596 3.78727 15.9996 3.44727 16.4096 3.44727C18.7496 3.44727 20.6596 5.35727 20.6596 7.69727C20.6596 9.99727 18.8596 11.8573 16.5696 11.9473C16.5596 11.9473 16.5496 11.9473 16.5396 11.9473Z" fill="#1F1F1F"/>
<path d="M9.16961 22.7473C7.20961 22.7473 5.23961 22.2473 3.74961 21.2473C2.35961 20.3273 1.59961 19.0673 1.59961 17.6973C1.59961 16.3273 2.35961 15.0573 3.74961 14.1273C6.74961 12.1373 11.6096 12.1373 14.5896 14.1273C15.9696 15.0473 16.7396 16.3073 16.7396 17.6773C16.7396 19.0473 15.9796 20.3173 14.5896 21.2473C13.0896 22.2473 11.1296 22.7473 9.16961 22.7473ZM4.57961 15.3873C3.61961 16.0273 3.09961 16.8473 3.09961 17.7073C3.09961 18.5573 3.62961 19.3773 4.57961 20.0073C7.06961 21.6773 11.2696 21.6773 13.7596 20.0073C14.7196 19.3673 15.2396 18.5473 15.2396 17.6873C15.2396 16.8373 14.7096 16.0173 13.7596 15.3873C11.2696 13.7273 7.06961 13.7273 4.57961 15.3873Z" fill="#1F1F1F"/>
<path d="M18.3396 20.9473C17.9896 20.9473 17.6796 20.7073 17.6096 20.3473C17.5296 19.9373 17.7896 19.5473 18.1896 19.4573C18.8196 19.3273 19.3996 19.0773 19.8496 18.7273C20.4196 18.2973 20.7296 17.7573 20.7296 17.1873C20.7296 16.6173 20.4196 16.0773 19.8596 15.6573C19.4196 15.3173 18.8696 15.0773 18.2196 14.9273C17.8196 14.8373 17.5596 14.4373 17.6496 14.0273C17.7396 13.6273 18.1396 13.3673 18.5496 13.4573C19.4096 13.6473 20.1596 13.9873 20.7696 14.4573C21.6996 15.1573 22.2296 16.1473 22.2296 17.1873C22.2296 18.2273 21.6896 19.2173 20.7596 19.9273C20.1396 20.4073 19.3596 20.7573 18.4996 20.9273C18.4396 20.9473 18.3896 20.9473 18.3396 20.9473Z" fill="#1F1F1F"/>
</svg>
