<?xml version="1.0"?><svg viewBox="0 0 24 24" xmlns="http://www.w3.org/2000/svg"><title/><g><path d="M12.77,14.16a5,5,0,1,0-5.54,0A5.5,5.5,0,0,0,3,19.5a.5.5,0,0,0,.5.5h13a.5.5,0,0,0,.5-.5A5.5,5.5,0,0,0,12.77,14.16ZM6,10a4,4,0,1,1,4,4A4,4,0,0,1,6,10ZM4,19A4.5,4.5,0,0,1,8.5,15h3A4.5,4.5,0,0,1,16,19Z" fill="#646464"/><path d="M21.13,10A1.86,1.86,0,0,0,19.5,9a1.88,1.88,0,0,0-2,2,.5.5,0,0,0,1,0,.88.88,0,0,1,1-1,.87.87,0,0,1,.75.45,1.26,1.26,0,0,1-.17,1.28c-.14.21-.27.38-.39.53A2.38,2.38,0,0,0,19,14a.5.5,0,0,0,1,0,1.52,1.52,0,0,1,.46-1.12,4.83,4.83,0,0,0,.46-.61A2.23,2.23,0,0,0,21.13,10Z" fill="#646464"/><circle cx="19.5" cy="16" fill="#646464" r="0.5"/></g></svg>