<svg width="33" height="33" viewBox="0 0 33 33" fill="none" xmlns="http://www.w3.org/2000/svg">
<path d="M23.5933 19.8439C23.1597 19.0971 22.5152 16.9838 22.5152 14.2236C22.5152 12.566 21.8567 10.9763 20.6846 9.80422C19.5125 8.63211 17.9228 7.97363 16.2652 7.97363C14.6076 7.97363 13.0179 8.63211 11.8458 9.80422C10.6737 10.9763 10.0152 12.566 10.0152 14.2236C10.0152 16.9846 9.3699 19.0971 8.9363 19.8439C8.82558 20.0338 8.76688 20.2495 8.76612 20.4693C8.76537 20.6891 8.82258 20.9053 8.932 21.0959C9.04142 21.2865 9.19918 21.4449 9.38935 21.5551C9.57953 21.6654 9.7954 21.7235 10.0152 21.7236H13.2035C13.3477 22.4292 13.7312 23.0634 14.2891 23.5188C14.847 23.9742 15.545 24.2229 16.2652 24.2229C16.9854 24.2229 17.6835 23.9742 18.2414 23.5188C18.7993 23.0634 19.1827 22.4292 19.3269 21.7236H22.5152C22.7349 21.7233 22.9507 21.6651 23.1408 21.5549C23.3309 21.4446 23.4885 21.2862 23.5978 21.0956C23.7072 20.9049 23.7643 20.6889 23.7635 20.4691C23.7627 20.2494 23.704 20.0338 23.5933 19.8439ZM16.2652 22.9736C15.8776 22.9735 15.4995 22.8533 15.183 22.6294C14.8665 22.4055 14.6272 22.0891 14.498 21.7236H18.0324C17.9032 22.0891 17.6639 22.4055 17.3474 22.6294C17.0309 22.8533 16.6528 22.9735 16.2652 22.9736ZM10.0152 20.4736C10.6168 19.4393 11.2652 17.0424 11.2652 14.2236C11.2652 12.8976 11.792 11.6258 12.7297 10.6881C13.6674 9.75042 14.9391 9.22363 16.2652 9.22363C17.5913 9.22363 18.8631 9.75042 19.8007 10.6881C20.7384 11.6258 21.2652 12.8976 21.2652 14.2236C21.2652 17.04 21.9121 19.4369 22.5152 20.4736H10.0152Z" fill="#383838"/>
</svg>
