<svg width="20" height="21" viewBox="0 0 20 21" fill="none" xmlns="http://www.w3.org/2000/svg">
<path d="M16.6922 12.2547L10.4422 6.00473C10.3842 5.94662 10.3152 5.90052 10.2393 5.86907C10.1635 5.83762 10.0821 5.82143 10 5.82143C9.91788 5.82143 9.83655 5.83762 9.76067 5.86907C9.6848 5.90052 9.61587 5.94662 9.55782 6.00473L3.30782 12.2547C3.19055 12.372 3.12466 12.5311 3.12466 12.6969C3.12466 12.8628 3.19055 13.0218 3.30782 13.1391C3.4251 13.2564 3.58416 13.3223 3.75001 13.3223C3.91586 13.3223 4.07492 13.2564 4.1922 13.1391L10 7.33051L15.8078 13.1391C15.8659 13.1972 15.9348 13.2432 16.0107 13.2747C16.0866 13.3061 16.1679 13.3223 16.25 13.3223C16.3321 13.3223 16.4135 13.3061 16.4893 13.2747C16.5652 13.2432 16.6341 13.1972 16.6922 13.1391C16.7503 13.081 16.7963 13.0121 16.8278 12.9362C16.8592 12.8604 16.8754 12.779 16.8754 12.6969C16.8754 12.6148 16.8592 12.5335 16.8278 12.4576C16.7963 12.3817 16.7503 12.3128 16.6922 12.2547Z" fill="#878787"/>
</svg>
