<svg width="24" height="24" viewBox="0 0 24 24" fill="none" xmlns="http://www.w3.org/2000/svg">
<path d="M13.324 8.4359L9.495 12.1899C9.131 12.5499 8.931 13.0419 8.939 13.5589C8.94991 14.0819 9.1653 14.5798 9.539 14.9459C9.914 15.3169 10.419 15.5299 10.942 15.5389C11.198 15.5443 11.4525 15.4984 11.6906 15.4039C11.9286 15.3095 12.1453 15.1684 12.328 14.9889L16.156 11.2349C16.5171 10.8776 16.8019 10.4507 16.9931 9.98006C17.1842 9.5094 17.2778 9.0048 17.268 8.4969C17.247 7.45082 16.8169 6.45462 16.07 5.7219C15.321 4.98075 14.3155 4.5564 13.262 4.5369C12.7505 4.52669 12.2421 4.61853 11.7665 4.80706C11.2909 4.99559 10.8576 5.27701 10.492 5.6349L6.661 9.3899C6.1197 9.92606 5.69286 10.5665 5.40632 11.2724C5.11979 11.9784 4.97951 12.7352 4.994 13.4969C5.0262 15.0656 5.67164 16.5594 6.792 17.6579C7.91486 18.7693 9.42238 19.406 11.002 19.4359C11.7696 19.4519 12.5326 19.3145 13.2464 19.0319C13.9602 18.7493 14.6104 18.327 15.159 17.7899L18.988 14.0339" stroke="black" stroke-width="2" stroke-linecap="round" stroke-linejoin="round"/>
</svg>
