<svg width="8" height="8" viewBox="0 0 8 8" fill="none" xmlns="http://www.w3.org/2000/svg">
<path d="M7.85316 3.65623L4.89416 0.31123C4.79827 0.225256 4.67308 0.179296 4.54434 0.182804C4.41559 0.186312 4.29309 0.239021 4.20202 0.330089C4.11095 0.421157 4.05825 0.543661 4.05474 0.672403C4.05123 0.801146 4.09719 0.926337 4.18316 1.02223L6.83316 4.01823L4.18316 7.01423C4.09719 7.11012 4.05123 7.23531 4.05474 7.36406C4.05825 7.4928 4.11095 7.6153 4.20202 7.70637C4.29309 7.79744 4.41559 7.85015 4.54434 7.85366C4.67308 7.85716 4.79827 7.8112 4.89416 7.72523L7.85316 4.38023C7.95316 4.28023 8.00116 4.14923 7.99916 4.01823C8.00023 3.9512 7.98786 3.88463 7.96279 3.82246C7.93771 3.76028 7.90044 3.70376 7.85316 3.65623ZM0.596163 7.72623C0.792163 7.92223 1.11116 7.92223 1.30716 7.72623L4.26616 4.38123C4.36616 4.28123 4.41416 4.15023 4.41216 4.01923C4.41355 3.95216 4.40132 3.8855 4.37623 3.82328C4.35114 3.76106 4.31369 3.70458 4.26616 3.65723L1.30816 0.31123C1.21227 0.225256 1.08708 0.179296 0.958336 0.182804C0.829594 0.186312 0.70709 0.239021 0.616022 0.330089C0.524954 0.421157 0.472246 0.543661 0.468738 0.672403C0.46523 0.801146 0.511189 0.926337 0.597163 1.02223L3.24716 4.01823L0.597163 7.01423C0.502623 7.10852 0.449407 7.2365 0.449219 7.37002C0.449032 7.50355 0.501889 7.63167 0.596163 7.72623Z" fill="#888888"/>
</svg>
