<svg width="12" height="12" viewBox="0 0 12 12" fill="none" xmlns="http://www.w3.org/2000/svg">
<path fill-rule="evenodd" clip-rule="evenodd" d="M10.773 2.55578C10.9136 2.69642 10.9926 2.88715 10.9926 3.08603C10.9926 3.2849 10.9136 3.47563 10.773 3.61628L5.1515 9.23778C5.07721 9.31208 4.98901 9.37103 4.89194 9.41124C4.79486 9.45146 4.69082 9.47216 4.58575 9.47216C4.48067 9.47216 4.37663 9.45146 4.27956 9.41124C4.18249 9.37103 4.09429 9.31208 4.02 9.23778L1.227 6.44528C1.15537 6.37609 1.09823 6.29333 1.05892 6.20183C1.01962 6.11033 0.998925 6.01191 0.99806 5.91233C0.997195 5.81274 1.01617 5.71398 1.05388 5.62181C1.09159 5.52964 1.14728 5.4459 1.2177 5.37548C1.28812 5.30506 1.37186 5.24937 1.46403 5.21166C1.5562 5.17395 1.65496 5.15497 1.75455 5.15584C1.85413 5.1567 1.95255 5.17739 2.04405 5.2167C2.13555 5.25601 2.21831 5.31314 2.2875 5.38478L4.5855 7.68278L9.712 2.55578C9.78165 2.48608 9.86435 2.43079 9.95537 2.39307C10.0464 2.35535 10.144 2.33594 10.2425 2.33594C10.341 2.33594 10.4386 2.35535 10.5296 2.39307C10.6206 2.43079 10.7033 2.48608 10.773 2.55578Z" fill="#22965E"/>
</svg>
