<svg width="20" height="20" viewBox="0 0 20 20" fill="none" xmlns="http://www.w3.org/2000/svg">
<path d="M10 18.9587C5.05834 18.9587 1.04167 14.942 1.04167 10.0003C1.04167 5.05866 5.05834 1.04199 10 1.04199C14.9417 1.04199 18.9583 5.05866 18.9583 10.0003C18.9583 14.942 14.9417 18.9587 10 18.9587ZM10 2.29199C5.75001 2.29199 2.29167 5.75033 2.29167 10.0003C2.29167 14.2503 5.75001 17.7087 10 17.7087C14.25 17.7087 17.7083 14.2503 17.7083 10.0003C17.7083 5.75033 14.25 2.29199 10 2.29199Z" fill="#3A5164"/>
<path d="M13.0917 13.2755C12.9833 13.2755 12.875 13.2505 12.775 13.1838L10.1917 11.6421C9.55 11.2588 9.075 10.4171 9.075 9.67546V6.25879C9.075 5.91712 9.35833 5.63379 9.7 5.63379C10.0417 5.63379 10.325 5.91712 10.325 6.25879V9.67546C10.325 9.97546 10.575 10.4171 10.8333 10.5671L13.4167 12.1088C13.7167 12.2838 13.8083 12.6671 13.6333 12.9671C13.5083 13.1671 13.3 13.2755 13.0917 13.2755Z" fill="#3A5164"/>
</svg>
