<svg width="18" height="19" viewBox="0 0 18 19" fill="none" xmlns="http://www.w3.org/2000/svg">
<path d="M2.25 6.19998V15.8C2.25 16.1 2.4 16.4 2.625 16.625C2.85 16.85 3.15 17 3.45 17H10.8M11.25 2V5.75H15M11.625 2H6.45C6.15 2 5.85 2.15 5.625 2.375C5.4 2.6 5.25 2.9 5.25 3.2V12.8C5.25 13.1 5.4 13.4 5.625 13.625C5.85 13.85 6.15 14 6.45 14H13.8C14.1 14 14.4 13.85 14.625 13.625C14.85 13.4 15 13.1 15 12.8V5.375L11.625 2Z" stroke="#5C5C5C" stroke-width="1.5" stroke-linecap="round" stroke-linejoin="round"/>
</svg>
