<svg width="19" height="19" viewBox="0 0 19 19" fill="none" xmlns="http://www.w3.org/2000/svg">
<path d="M11.3492 8.18489L14.7437 6.48799C14.8574 6.4312 14.9836 6.40439 15.1105 6.41011C15.2374 6.41582 15.3608 6.45387 15.4689 6.52065C15.5769 6.58742 15.6662 6.6807 15.7281 6.79163C15.79 6.90257 15.8225 7.02748 15.8226 7.15452V12.1975C15.8225 12.3245 15.79 12.4495 15.7281 12.5604C15.6662 12.6713 15.5769 12.7646 15.4689 12.8314C15.3608 12.8981 15.2374 12.9362 15.1105 12.9419C14.9836 12.9476 14.8574 12.9208 14.7437 12.864L11.3492 11.1671V8.18489ZM2.40244 6.69376C2.40244 6.29829 2.55954 5.91902 2.83918 5.63938C3.11882 5.35974 3.49809 5.20264 3.89356 5.20264H9.85806C10.2535 5.20264 10.6328 5.35974 10.9124 5.63938C11.1921 5.91902 11.3492 6.29829 11.3492 6.69376V12.6583C11.3492 13.0537 11.1921 13.433 10.9124 13.7126C10.6328 13.9923 10.2535 14.1494 9.85806 14.1494H3.89356C3.49809 14.1494 3.11882 13.9923 2.83918 13.7126C2.55954 13.433 2.40244 13.0537 2.40244 12.6583V6.69376Z" stroke="#3A5164" stroke-width="1.49112" stroke-linecap="round" stroke-linejoin="round"/>
</svg>
