<svg width="18" height="18" viewBox="0 0 18 18" fill="none" xmlns="http://www.w3.org/2000/svg">
<path fill-rule="evenodd" clip-rule="evenodd" d="M8.00551 2.33739C8.04795 2.52485 8.01421 2.7215 7.9117 2.88409C7.8092 3.04669 7.64632 3.16192 7.45888 3.20446C7.31662 3.23683 7.17563 3.27455 7.03622 3.31756C6.94525 3.34564 6.84964 3.35553 6.75485 3.34667C6.66005 3.33781 6.56794 3.31036 6.48375 3.26589C6.39957 3.22143 6.32497 3.16082 6.26421 3.08752C6.20345 3.01422 6.15772 2.92968 6.12963 2.83871C6.10155 2.74774 6.09166 2.65213 6.10052 2.55734C6.10938 2.46255 6.13683 2.37043 6.1813 2.28624C6.22576 2.20206 6.28637 2.12746 6.35967 2.0667C6.43297 2.00594 6.51751 1.96021 6.60848 1.93212C6.78248 1.87799 6.95889 1.83087 7.13771 1.79075C7.23059 1.76963 7.32671 1.76702 7.4206 1.78306C7.51448 1.79911 7.60429 1.8335 7.68488 1.88426C7.76547 1.93502 7.83526 2.00117 7.89028 2.07892C7.9453 2.15667 7.98445 2.2445 8.00551 2.33739ZM9.49171 2.33739C9.53425 2.14994 9.64949 1.98707 9.81208 1.88456C9.97468 1.78206 10.1713 1.74831 10.3588 1.79075C13.5878 2.52298 15.9991 5.40984 15.9991 8.86073C15.9991 12.8648 12.7527 16.1105 8.74934 16.1105C5.29772 16.1105 2.41087 13.6999 1.67864 10.4709C1.64105 10.2853 1.67759 10.0923 1.78043 9.93333C1.88326 9.77431 2.04424 9.66184 2.22893 9.61998C2.41362 9.57812 2.60736 9.61018 2.76871 9.70932C2.93007 9.80845 3.04622 9.96679 3.09234 10.1505C3.32304 11.1609 3.82029 12.0911 4.53236 12.8442C5.24444 13.5973 6.14531 14.1458 7.14125 14.4327C8.1372 14.7196 9.19182 14.7343 10.1954 14.4755C11.199 14.2166 12.1149 13.6935 12.8477 12.9606C13.5806 12.2277 14.1037 11.3118 14.3626 10.3083C14.6215 9.30466 14.6067 8.25004 14.3199 7.25409C14.033 6.25815 13.4844 5.35728 12.7313 4.64521C11.9782 3.93314 11.0481 3.43588 10.0376 3.20518C9.85016 3.16249 9.68733 3.04708 9.58495 2.88434C9.48258 2.7216 9.44904 2.52486 9.49171 2.33739ZM4.84389 3.5829C4.90872 3.65271 4.95916 3.73461 4.99233 3.82392C5.02549 3.91324 5.04072 4.00821 5.03715 4.10342C5.03358 4.19863 5.01128 4.29219 4.97153 4.37878C4.93177 4.46536 4.87534 4.54326 4.80546 4.60801C4.69817 4.70709 4.59498 4.81004 4.4959 4.91685C4.3642 5.05389 4.18395 5.13373 3.99397 5.13918C3.80399 5.14462 3.61946 5.07525 3.48013 4.94599C3.34079 4.81673 3.25778 4.63792 3.24899 4.44806C3.24019 4.2582 3.3063 4.07248 3.43308 3.93089C3.55633 3.79749 3.68489 3.66869 3.81877 3.54447C3.88858 3.47964 3.97048 3.4292 4.0598 3.39604C4.14911 3.36287 4.24409 3.34764 4.33929 3.35121C4.4345 3.35478 4.52807 3.37708 4.61465 3.41683C4.70123 3.45659 4.77913 3.51302 4.84389 3.5829ZM8.74861 4.51087C8.94089 4.51087 9.12529 4.58725 9.26125 4.72321C9.39721 4.85917 9.47359 5.04357 9.47359 5.23584V8.56059L11.4361 10.5231C11.5682 10.6598 11.6412 10.843 11.6396 11.033C11.6379 11.2231 11.5617 11.405 11.4273 11.5394C11.2929 11.6738 11.111 11.75 10.9209 11.7517C10.7308 11.7534 10.5477 11.6803 10.411 11.5482L8.23605 9.37329C8.10008 9.23736 8.02368 9.05299 8.02364 8.86073V5.23584C8.02364 5.04357 8.10002 4.85917 8.23598 4.72321C8.37194 4.58725 8.55634 4.51087 8.74861 4.51087ZM2.72623 6.24211C2.90993 6.29876 3.06362 6.42605 3.15348 6.596C3.24335 6.76594 3.26204 6.96461 3.20544 7.14833C3.16244 7.28775 3.12471 7.42874 3.09234 7.57099C3.04622 7.75467 2.93007 7.913 2.76871 8.01214C2.60736 8.11128 2.41362 8.14334 2.22893 8.10148C2.04424 8.05961 1.88326 7.94715 1.78043 7.78813C1.67759 7.62911 1.64105 7.43616 1.67864 7.25056C1.71924 7.07173 1.76636 6.89532 1.82001 6.72132C1.87666 6.53762 2.00395 6.38394 2.17389 6.29407C2.34383 6.20421 2.54251 6.18552 2.72623 6.24211Z" fill="#3A5164"/>
</svg>
