<svg width="33" height="33" viewBox="0 0 33 33" fill="none" xmlns="http://www.w3.org/2000/svg">
<path d="M8.7652 11.0986C8.7652 10.9329 8.83105 10.7739 8.94826 10.6567C9.06547 10.5395 9.22444 10.4736 9.3902 10.4736H23.1402C23.306 10.4736 23.4649 10.5395 23.5821 10.6567C23.6994 10.7739 23.7652 10.9329 23.7652 11.0986C23.7652 11.2644 23.6994 11.4234 23.5821 11.5406C23.4649 11.6578 23.306 11.7236 23.1402 11.7236H9.3902C9.22444 11.7236 9.06547 11.6578 8.94826 11.5406C8.83105 11.4234 8.7652 11.2644 8.7652 11.0986ZM9.3902 14.8486H19.3902C19.556 14.8486 19.7149 14.7828 19.8321 14.6656C19.9494 14.5484 20.0152 14.3894 20.0152 14.2236C20.0152 14.0579 19.9494 13.8989 19.8321 13.7817C19.7149 13.6645 19.556 13.5986 19.3902 13.5986H9.3902C9.22444 13.5986 9.06547 13.6645 8.94826 13.7817C8.83105 13.8989 8.7652 14.0579 8.7652 14.2236C8.7652 14.3894 8.83105 14.5484 8.94826 14.6656C9.06547 14.7828 9.22444 14.8486 9.3902 14.8486ZM23.1402 16.7236H9.3902C9.22444 16.7236 9.06547 16.7895 8.94826 16.9067C8.83105 17.0239 8.7652 17.1829 8.7652 17.3486C8.7652 17.5144 8.83105 17.6734 8.94826 17.7906C9.06547 17.9078 9.22444 17.9736 9.3902 17.9736H23.1402C23.306 17.9736 23.4649 17.9078 23.5821 17.7906C23.6994 17.6734 23.7652 17.5144 23.7652 17.3486C23.7652 17.1829 23.6994 17.0239 23.5821 16.9067C23.4649 16.7895 23.306 16.7236 23.1402 16.7236ZM19.3902 19.8486H9.3902C9.22444 19.8486 9.06547 19.9145 8.94826 20.0317C8.83105 20.1489 8.7652 20.3079 8.7652 20.4736C8.7652 20.6394 8.83105 20.7984 8.94826 20.9156C9.06547 21.0328 9.22444 21.0986 9.3902 21.0986H19.3902C19.556 21.0986 19.7149 21.0328 19.8321 20.9156C19.9494 20.7984 20.0152 20.6394 20.0152 20.4736C20.0152 20.3079 19.9494 20.1489 19.8321 20.0317C19.7149 19.9145 19.556 19.8486 19.3902 19.8486Z" fill="#383838"/>
</svg>
