<svg width="24" height="24" viewBox="0 0 24 24" fill="none" xmlns="http://www.w3.org/2000/svg">
<path opacity="0.5" d="M18 10H13" stroke="black" stroke-width="1.5" stroke-linecap="round"/>
<path d="M2 6.95C2 6.067 2 5.626 2.07 5.258C2.21922 4.46784 2.60314 3.741 3.17165 3.17231C3.74017 2.60361 4.46689 2.21947 5.257 2.07C5.626 2 6.068 2 6.95 2C7.336 2 7.53 2 7.716 2.017C8.51705 2.09223 9.27679 2.40728 9.896 2.921C10.04 3.04 10.176 3.176 10.45 3.45L11 4C11.816 4.816 12.224 5.224 12.712 5.495C12.9802 5.64449 13.2648 5.7626 13.56 5.847C14.098 6 14.675 6 15.828 6H16.202C18.834 6 20.151 6 21.006 6.77C21.0853 6.84 21.16 6.91467 21.23 6.994C22 7.849 22 9.166 22 11.798V14C22 17.771 22 19.657 20.828 20.828C19.656 21.999 17.771 22 14 22H10C6.229 22 4.343 22 3.172 20.828C2.001 19.656 2 17.771 2 14V6.95Z" stroke="black" stroke-width="1.5"/>
</svg>
