<svg width="24" height="25" viewBox="0 0 24 25" fill="none" xmlns="http://www.w3.org/2000/svg">
<path d="M20.25 6.94703H12.3103L9.75 4.38672C9.61122 4.24682 9.44601 4.13591 9.26398 4.06043C9.08196 3.98495 8.88674 3.9464 8.68969 3.94703H3.75C3.35218 3.94703 2.97064 4.10506 2.68934 4.38637C2.40804 4.66767 2.25 5.0492 2.25 5.44703V19.0052C2.2505 19.3874 2.40257 19.7539 2.67286 20.0242C2.94316 20.2945 3.30962 20.4465 3.69188 20.447H20.3334C20.709 20.4465 21.069 20.2971 21.3346 20.0316C21.6001 19.766 21.7495 19.406 21.75 19.0305V8.44703C21.75 8.0492 21.592 7.66767 21.3107 7.38637C21.0294 7.10506 20.6478 6.94703 20.25 6.94703ZM3.75 5.44703H8.68969L10.1897 6.94703H3.75V5.44703ZM20.25 18.947H3.75V8.44703H20.25V18.947Z" fill="#878787"/>
</svg>
