<svg width="110" height="45" viewBox="0 0 110 45" fill="none" xmlns="http://www.w3.org/2000/svg">
<path d="M105.306 13.9424C102.86 11.3391 99.3112 9.95019 95.6439 9.95019C91.9765 10.009 88.4848 11.5118 86.1577 14.1151C83.6549 16.6595 82.4331 19.7258 82.4331 23.3119V34.6491C82.4331 36.8463 80.629 38.6982 78.2999 38.6982C76.9617 38.8709 75.6234 38.4667 74.6326 37.5996C73.7602 36.8483 73.2943 35.8065 73.2943 34.6491L73.3535 15.6766H82.0245V10.6447H73.2943V0H68.2907V15.0391C65.4977 12.1474 61.6567 10.4112 57.4643 10.0071C52.5179 9.65984 47.8025 11.2214 44.4865 14.4603C41.6935 16.9479 39.8894 20.0711 39.1907 23.6003L36.7451 37.9469C36.6287 39.0455 35.5233 39.1043 35.3477 39.1043C34.8246 39.1632 33.893 38.8728 33.7765 37.89C32.5192 30.4901 31.2638 23.0922 30.0065 15.6923C29.4242 11.9904 26.2819 10.3131 23.5462 10.3131H23.487C20.7513 10.3131 17.7254 11.9904 17.2004 15.6923C15.9589 23.0922 14.7173 30.4901 13.4778 37.89C13.3613 38.7571 12.8955 39.1043 11.9639 39.1043C11.0914 39.1043 10.6828 38.7571 10.5092 37.89L8.9972 29.0403L5.9141 10.6447H0.734802L3.87712 29.0403L5.56474 38.7002C6.14701 42.4021 9.28933 44.0794 12.025 44.0794H12.0823C14.818 44.0794 17.8439 42.4021 18.3689 38.7002C19.6104 31.3003 20.852 23.9024 22.0915 16.5026C22.208 15.6354 22.6738 15.2882 23.6054 15.2882C24.4779 15.2882 24.8864 15.6354 25.0601 16.5026C26.3175 23.9024 27.5728 31.3003 28.8301 38.7002C29.4696 42.4021 32.5547 44.0794 35.2904 44.0794C35.2904 44.0794 35.2904 44.0794 35.3496 44.0794C38.0854 44.0794 41.1112 42.4021 41.7507 38.7002C42.0429 37.0798 42.3903 34.7668 42.7988 32.395C43.3811 29.2718 43.9042 25.9172 44.2535 23.8926C46.1741 16.893 52.4015 14.4643 57.64 15.1587C62.9357 15.8532 68.2335 19.8435 68.2335 27.1335C68.4072 32.8599 64.4496 36.5618 60.7251 38.1234C56.9432 39.685 51.4718 39.8596 47.3978 35.6359L46.8748 35.0571L43.3239 38.5864L43.8469 39.1651C46.932 42.404 51.2389 44.1971 55.8951 44.1971C56.3609 44.1971 56.8268 44.1971 57.2926 44.1383C61.9488 43.791 66.1965 41.7096 69.0486 38.353C70.3297 41.3035 73.2983 43.4438 76.5571 43.6753V43.7341H79.1763V43.6753C81.4462 43.5026 83.3075 42.6336 84.8214 41.072C86.5683 39.2789 87.4979 37.1386 87.4979 34.6511V22.3291C87.6716 20.4202 88.4296 18.8587 89.9415 17.4128C92.6772 14.5212 96.4018 14.578 99.0211 15.6766C101.64 16.7184 104.376 19.3216 104.26 23.3119V43.7322H109.265V23.3119C109.263 19.7258 107.925 16.5438 105.306 13.9424Z" fill="#3A5164"/>
</svg>
