<svg width="19" height="18" viewBox="0 0 19 18" fill="none" xmlns="http://www.w3.org/2000/svg">
<path d="M4.28503 16.5C3.98503 16.5 3.72253 16.3875 3.49753 16.1625C3.27253 15.9375 3.16003 15.675 3.16003 15.375V3.75C3.16003 3.45 3.27253 3.1875 3.49753 2.9625C3.72253 2.7375 3.98503 2.625 4.28503 2.625H5.50378V1.5H6.72253V2.625H13.0975V1.5H14.3163V2.625H15.535C15.835 2.625 16.0975 2.7375 16.3225 2.9625C16.5475 3.1875 16.66 3.45 16.66 3.75V15.375C16.66 15.675 16.5475 15.9375 16.3225 16.1625C16.0975 16.3875 15.835 16.5 15.535 16.5H4.28503ZM4.28503 15.375H15.535V7.3125H4.28503V15.375ZM4.28503 6.1875H15.535V3.75H4.28503V6.1875Z" fill="#3A5164"/>
</svg>
