<svg width="20" height="20" viewBox="0 0 20 20" fill="none" xmlns="http://www.w3.org/2000/svg">
<path d="M10.8333 7.50033H15.4167L10.8333 2.91699V7.50033ZM5 1.66699H11.6667L16.6667 6.66699V16.667C16.6667 17.109 16.4911 17.5329 16.1785 17.8455C15.8659 18.1581 15.442 18.3337 15 18.3337H5C4.55797 18.3337 4.13405 18.1581 3.82149 17.8455C3.50893 17.5329 3.33333 17.109 3.33333 16.667V3.33366C3.33333 2.89163 3.50893 2.46771 3.82149 2.15515C4.13405 1.84259 4.55797 1.66699 5 1.66699ZM9.10833 10.367C9.45 11.117 9.88333 11.7337 10.3833 12.1587L10.725 12.4253C10 12.5587 9 12.792 7.94167 13.2003L7.85 13.2337L8.26667 12.367C8.64167 11.642 8.91667 10.9837 9.10833 10.367ZM14.5083 13.542C14.6583 13.392 14.7333 13.2003 14.7417 12.992C14.7667 12.8253 14.725 12.667 14.6417 12.5337C14.4 12.142 13.775 11.9587 12.7417 11.9587L11.6667 12.017L10.9417 11.5337C10.4167 11.1003 9.94167 10.342 9.60833 9.40033L9.64166 9.28366C9.91667 8.17533 10.175 6.83366 9.625 6.28366C9.55772 6.21833 9.47815 6.16702 9.39089 6.13268C9.30363 6.09835 9.21042 6.08169 9.11666 6.08366H8.91667C8.60833 6.08366 8.33333 6.40866 8.25833 6.72533C7.95 7.83366 8.13333 8.44199 8.44167 9.45033V9.45866C8.23333 10.192 7.96667 11.042 7.54167 11.9003L6.74167 13.4003L6 13.8087C5 14.4337 4.525 15.1337 4.43333 15.5753C4.4 15.7337 4.41667 15.8753 4.475 16.0253L4.5 16.067L4.9 16.3253L5.26667 16.417C5.94167 16.417 6.70833 15.6253 7.74167 13.8587L7.89167 13.8003C8.75 13.5253 9.81667 13.3337 11.25 13.1753C12.1083 13.6003 13.1167 13.792 13.75 13.792C14.1167 13.792 14.3667 13.7003 14.5083 13.542ZM14.1667 12.9503L14.2417 13.042C14.2333 13.1253 14.2083 13.1337 14.1667 13.1503H14.1333L13.975 13.167C13.5917 13.167 13 13.0087 12.3917 12.742C12.4667 12.6587 12.5 12.6587 12.5833 12.6587C13.75 12.6587 14.0833 12.867 14.1667 12.9503ZM6.525 14.167C5.98333 15.1587 5.49167 15.7087 5.11667 15.8337C5.15833 15.517 5.53333 14.967 6.125 14.4253L6.525 14.167ZM9.04167 8.40866C8.85 7.65866 8.84167 7.05033 8.98333 6.70033L9.04167 6.60033L9.16667 6.64199C9.30833 6.84199 9.325 7.10866 9.24167 7.55866L9.21667 7.69199L9.08333 8.37533L9.04167 8.40866Z" fill="#EF5350"/>
</svg>
