<svg width="56" height="51" viewBox="0 0 56 51" fill="none" xmlns="http://www.w3.org/2000/svg">
<rect x="0.485962" y="0.850342" width="54.9533" height="49.4579" rx="7.85047" fill="#3A5164" fill-opacity="0.1"/>
<path d="M15.4018 38.5326C14.5383 38.5326 13.7993 38.2254 13.1849 37.611C12.5694 36.9955 12.2617 36.256 12.2617 35.3924V16.5513C12.2617 15.6878 12.5694 14.9488 13.1849 14.3343C13.7993 13.7189 14.5383 13.4111 15.4018 13.4111H24.8224L27.9626 16.5513H40.5233C41.3869 16.5513 42.1264 16.8591 42.7419 17.4745C43.3563 18.089 43.6635 18.828 43.6635 19.6915V35.3924C43.6635 36.256 43.3563 36.9955 42.7419 37.611C42.1264 38.2254 41.3869 38.5326 40.5233 38.5326H15.4018Z" fill="#3A5164"/>
</svg>
