<svg width="24" height="25" viewBox="0 0 24 25" fill="none" xmlns="http://www.w3.org/2000/svg">
<path d="M11.9899 2.19678C6.46994 2.19678 1.99994 6.67678 1.99994 12.1968C1.99994 17.7168 6.46994 22.1968 11.9899 22.1968C17.5199 22.1968 21.9999 17.7168 21.9999 12.1968C21.9999 6.67678 17.5199 2.19678 11.9899 2.19678ZM11.9999 20.1968C7.57994 20.1968 3.99994 16.6168 3.99994 12.1968C3.99994 7.77678 7.57994 4.19678 11.9999 4.19678C16.4199 4.19678 19.9999 7.77678 19.9999 12.1968C19.9999 16.6168 16.4199 20.1968 11.9999 20.1968Z" fill="#878787"/>
<path d="M12.4999 7.19727H10.9999V13.1973L16.2499 16.3473L16.9999 15.1173L12.4999 12.4473V7.19727Z" fill="#878787"/>
</svg>
