<svg width="32" height="25" viewBox="0 0 32 25" fill="none" xmlns="http://www.w3.org/2000/svg">
<path d="M13.5212 12.4467C13.5212 13.2962 12.8167 14.0006 11.9673 14.0006C11.1178 14.0006 10.4134 13.2962 10.4134 12.4467C10.4134 11.5973 11.1074 10.8928 11.9673 10.8928C12.8271 10.8928 13.5212 11.5973 13.5212 12.4467ZM19.2188 12.4467C19.2188 13.2962 18.5144 14.0006 17.6649 14.0006C16.8154 14.0006 16.111 13.2962 16.111 12.4467C16.111 11.5973 16.8154 10.8928 17.6649 10.8928C18.5144 10.8928 19.2188 11.5973 19.2188 12.4467ZM24.9164 12.4467C24.9164 13.2962 24.2224 14.0006 23.3625 14.0006C22.5131 14.0006 21.8086 13.2962 21.8086 12.4467C21.8086 11.5973 22.5131 10.8928 23.3625 10.8928C24.2224 10.8928 24.9164 11.5973 24.9164 12.4467Z" fill="#1F1F1F"/>
</svg>
