<svg width="20" height="21" viewBox="0 0 20 21" fill="none" xmlns="http://www.w3.org/2000/svg">
<path d="M17.9422 17.2548L14.0305 13.3438C15.1642 11.9827 15.7296 10.2368 15.6089 8.4694C15.4883 6.70202 14.6909 5.04919 13.3826 3.85475C12.0744 2.66031 10.356 2.01622 8.58492 2.05647C6.81388 2.09672 5.12653 2.81821 3.87389 4.07085C2.62125 5.32349 1.89976 7.01084 1.85951 8.78188C1.81926 10.5529 2.46334 12.2713 3.65779 13.5796C4.85223 14.8878 6.50506 15.6852 8.27244 15.8059C10.0398 15.9266 11.7857 15.3612 13.1469 14.2274L17.0578 18.1391C17.1159 18.1972 17.1848 18.2433 17.2607 18.2747C17.3366 18.3061 17.4179 18.3223 17.5 18.3223C17.5821 18.3223 17.6634 18.3061 17.7393 18.2747C17.8152 18.2433 17.8841 18.1972 17.9422 18.1391C18.0003 18.0811 18.0463 18.0121 18.0777 17.9363C18.1092 17.8604 18.1253 17.7791 18.1253 17.697C18.1253 17.6148 18.1092 17.5335 18.0777 17.4576C18.0463 17.3818 18.0003 17.3128 17.9422 17.2548ZM3.125 8.94696C3.125 7.83444 3.4549 6.7469 4.07298 5.82187C4.69106 4.89685 5.56957 4.17588 6.5974 3.75013C7.62524 3.32439 8.75624 3.213 9.84738 3.43004C10.9385 3.64708 11.9408 4.18281 12.7275 4.96948C13.5141 5.75615 14.0499 6.75843 14.2669 7.84957C14.484 8.94072 14.3726 10.0717 13.9468 11.0996C13.5211 12.1274 12.8001 13.0059 11.8751 13.624C10.9501 14.2421 9.86252 14.572 8.75 14.572C7.25866 14.5703 5.82888 13.9771 4.77435 12.9226C3.71981 11.8681 3.12665 10.4383 3.125 8.94696Z" fill="#878787"/>
</svg>
