<svg width="36" height="36" viewBox="0 0 36 36" fill="none" xmlns="http://www.w3.org/2000/svg">
<path d="M19.8687 26.9688H16.6312C15.9837 26.9688 15.4412 26.4963 15.3625 25.8575L15.1262 24.2038C14.89 24.0813 14.6625 23.95 14.435 23.8013L12.86 24.4313C12.2475 24.6588 11.5737 24.405 11.2762 23.8625L9.67496 21.0888C9.36871 20.5113 9.49996 19.8288 9.98996 19.4438L11.3287 18.4025C11.32 18.2713 11.3112 18.14 11.3112 18C11.3112 17.8688 11.32 17.7288 11.3287 17.5975L9.99871 16.5563C9.48246 16.1625 9.35121 15.4538 9.67496 14.9113L11.2937 12.12C11.5912 11.5775 12.265 11.3325 12.86 11.5688L14.4437 12.2075C14.6712 12.0588 14.8987 11.9275 15.1262 11.805L15.3625 10.1338C15.4412 9.52129 15.9837 9.04004 16.6225 9.04004H19.86C20.5075 9.04004 21.05 9.51254 21.1287 10.1513L21.365 11.805C21.6012 11.9275 21.8287 12.0588 22.0562 12.2075L23.6312 11.5775C24.2525 11.35 24.9262 11.6038 25.2237 12.1463L26.8337 14.9288C27.1487 15.5063 27.0087 16.1888 26.5187 16.5738L25.1887 17.615C25.1975 17.7463 25.2062 17.8775 25.2062 18.0175C25.2062 18.1575 25.1975 18.2888 25.1887 18.42L26.5187 19.4613C27.0087 19.855 27.1487 20.5375 26.8425 21.0888L25.215 23.9063C24.9175 24.4488 24.2437 24.6938 23.64 24.4575L22.065 23.8275C21.8375 23.9763 21.61 24.1075 21.3825 24.23L21.1462 25.9013C21.0587 26.4963 20.5162 26.9688 19.8687 26.9688ZM17.0425 25.2188H19.4575L19.7812 22.9875L20.245 22.795C20.63 22.6375 21.015 22.41 21.4175 22.1125L21.8112 21.815L23.8937 22.655L25.1012 20.555L23.325 19.1725L23.3862 18.6825C23.4125 18.455 23.4387 18.2363 23.4387 18C23.4387 17.7638 23.4125 17.5363 23.3862 17.3175L23.325 16.8275L25.1012 15.445L23.885 13.345L21.7937 14.185L21.4 13.8788C21.0325 13.5988 20.6387 13.3713 20.2362 13.205L19.7812 13.0125L19.4575 10.7813H17.0425L16.7187 13.0125L16.255 13.1963C15.87 13.3625 15.485 13.5813 15.0825 13.8875L14.6887 14.1763L12.6062 13.345L11.39 15.4363L13.1662 16.8188L13.105 17.3088C13.0744 17.538 13.0569 17.7688 13.0525 18C13.0525 18.2275 13.07 18.4638 13.105 18.6825L13.1662 19.1725L11.39 20.555L12.5975 22.655L14.6887 21.815L15.0825 22.1213C15.4587 22.41 15.835 22.6288 16.2462 22.795L16.71 22.9875L17.0425 25.2188Z" fill="#444746"/>
<path d="M18.25 21.0625C19.9414 21.0625 21.3125 19.6914 21.3125 18C21.3125 16.3086 19.9414 14.9375 18.25 14.9375C16.5586 14.9375 15.1875 16.3086 15.1875 18C15.1875 19.6914 16.5586 21.0625 18.25 21.0625Z" fill="#444746"/>
</svg>
