<svg width="188" height="188" viewBox="0 0 188 188" fill="none" xmlns="http://www.w3.org/2000/svg">
<path d="M165.049 40.9677C152.437 39.7143 139.825 38.7743 127.135 38.0693V37.991L125.412 27.8077C124.237 20.601 122.514 9.79102 104.184 9.79102H83.6602C65.4085 9.79102 63.6852 20.131 62.4318 27.7293L60.7868 37.756C53.5018 38.226 46.2168 38.696 38.9318 39.401L22.9518 40.9677C19.6618 41.281 17.3118 44.1793 17.6252 47.391C17.9385 50.6027 20.7585 52.9527 24.0485 52.6393L40.0285 51.0727C81.0752 46.9993 122.435 48.566 163.952 52.7177C164.187 52.7177 164.344 52.7177 164.579 52.7177C167.555 52.7177 170.14 50.446 170.454 47.391C170.689 44.1793 168.339 41.281 165.049 40.9677Z" fill="#888888" fill-opacity="0.2"/>
<path d="M150.635 63.764C148.755 61.8057 146.17 60.709 143.507 60.709H44.4935C41.8302 60.709 39.1668 61.8057 37.3652 63.764C35.5635 65.7223 34.5452 68.3857 34.7018 71.1273L39.5585 151.497C40.4202 163.404 41.5168 178.287 68.8552 178.287H119.145C146.483 178.287 147.58 163.482 148.442 151.497L153.298 71.2057C153.455 68.3857 152.437 65.7223 150.635 63.764ZM107.003 139.042H80.9185C77.7068 139.042 75.0435 136.379 75.0435 133.167C75.0435 129.956 77.7068 127.292 80.9185 127.292H107.003C110.215 127.292 112.878 129.956 112.878 133.167C112.878 136.379 110.215 139.042 107.003 139.042ZM113.583 107.709H74.4168C71.2052 107.709 68.5418 105.046 68.5418 101.834C68.5418 98.6223 71.2052 95.959 74.4168 95.959H113.583C116.795 95.959 119.458 98.6223 119.458 101.834C119.458 105.046 116.795 107.709 113.583 107.709Z" fill="#888888" fill-opacity="0.2"/>
</svg>
