<svg width="17" height="17" viewBox="0 0 17 17" fill="none" xmlns="http://www.w3.org/2000/svg">
<path d="M14.4394 4.98633C14.4261 4.98633 14.4061 4.98633 14.3861 4.98633C10.8594 4.63299 7.3394 4.49966 3.85273 4.85299L2.49273 4.98633C2.21273 5.01299 1.96606 4.81299 1.9394 4.53299C1.91273 4.25299 2.11273 4.01299 2.38606 3.98633L3.74606 3.85299C7.29273 3.49299 10.8861 3.63299 14.4861 3.98633C14.7594 4.01299 14.9594 4.25966 14.9327 4.53299C14.9127 4.79299 14.6927 4.98633 14.4394 4.98633Z" fill="white"/>
<path d="M6.10596 4.31398C6.0793 4.31398 6.05263 4.31398 6.0193 4.30732C5.75263 4.26065 5.56596 4.00065 5.61263 3.73398L5.7593 2.86065C5.86596 2.22065 6.01263 1.33398 7.56596 1.33398H9.31263C10.8726 1.33398 11.0193 2.25398 11.1193 2.86732L11.266 3.73398C11.3126 4.00732 11.126 4.26732 10.8593 4.30732C10.586 4.35398 10.326 4.16732 10.286 3.90065L10.1393 3.03398C10.046 2.45398 10.026 2.34065 9.3193 2.34065H7.57263C6.86596 2.34065 6.85263 2.43398 6.75263 3.02732L6.5993 3.89398C6.5593 4.14065 6.34596 4.31398 6.10596 4.31398Z" fill="white"/>
<path d="M10.5795 15.6657H6.29955C3.97288 15.6657 3.87955 14.3791 3.80622 13.3391L3.37288 6.62574C3.35288 6.35241 3.56621 6.11241 3.83955 6.09241C4.11955 6.07907 4.35288 6.28574 4.37288 6.55907L4.80622 13.2724C4.87955 14.2857 4.90621 14.6657 6.29955 14.6657H10.5795C11.9795 14.6657 12.0062 14.2857 12.0729 13.2724L12.5062 6.55907C12.5262 6.28574 12.7662 6.07907 13.0395 6.09241C13.3129 6.11241 13.5262 6.34574 13.5062 6.62574L13.0729 13.3391C12.9995 14.3791 12.9062 15.6657 10.5795 15.6657Z" fill="white"/>
<path d="M9.54617 12H7.32617C7.05284 12 6.82617 11.7733 6.82617 11.5C6.82617 11.2267 7.05284 11 7.32617 11H9.54617C9.81951 11 10.0462 11.2267 10.0462 11.5C10.0462 11.7733 9.81951 12 9.54617 12Z" fill="white"/>
<path d="M10.1063 9.33398H6.77295C6.49962 9.33398 6.27295 9.10732 6.27295 8.83398C6.27295 8.56065 6.49962 8.33398 6.77295 8.33398H10.1063C10.3796 8.33398 10.6063 8.56065 10.6063 8.83398C10.6063 9.10732 10.3796 9.33398 10.1063 9.33398Z" fill="white"/>
</svg>
