<svg width="20" height="21" viewBox="0 0 20 21" fill="none" xmlns="http://www.w3.org/2000/svg">
<g id="Upload File To Website - iconSvg.co">
<g id="Group">
<path id="Vector" d="M17.3806 7.93457H13.0713C12.8457 7.93457 12.6613 8.11905 12.6613 8.34457C12.6613 8.57009 12.8457 8.75457 13.0713 8.75457H17.3806C17.8317 8.75457 18.2006 9.12353 18.2006 9.57457V17.9796C18.2006 18.4307 17.8317 18.7996 17.3806 18.7996H2.62047C2.16941 18.7996 1.80047 18.4307 1.80047 17.9796V9.57457C1.80047 9.12352 2.16943 8.75457 2.62047 8.75457H6.8068C7.03232 8.75457 7.2168 8.57009 7.2168 8.34457C7.2168 8.11905 7.03232 7.93457 6.8068 7.93457H2.62047C1.71852 7.93457 0.980469 8.67266 0.980469 9.57457V17.9796C0.980469 18.8816 1.71856 19.6196 2.62047 19.6196H17.3806C18.2826 19.6196 19.0206 18.8816 19.0206 17.9796V9.57457C19.0206 8.67262 18.2827 7.93457 17.3806 7.93457Z" fill="#FAFAFA"/>
<path id="Vector_2" d="M9.99886 14.2897C10.2244 14.2897 10.4089 14.1052 10.4089 13.8797V2.97387L12.6638 5.22883C12.7458 5.31077 12.8483 5.35181 12.9508 5.35181C13.0534 5.35181 13.1558 5.31076 13.2379 5.22883C13.4019 5.0648 13.4019 4.81883 13.2379 4.6548L10.2859 1.70285C10.2655 1.6824 10.2449 1.6618 10.2244 1.64136L10.204 1.62091C10.1835 1.62091 10.1835 1.60046 10.1629 1.60046C10.1425 1.60046 10.1425 1.60046 10.1219 1.58002C10.1014 1.58002 10.1014 1.58002 10.0808 1.55957H9.99889H9.91694H9.8759C9.85545 1.55957 9.85545 1.55957 9.83485 1.58002C9.8144 1.58002 9.8144 1.60046 9.7938 1.60046C9.77336 1.60046 9.77336 1.62091 9.75276 1.62091C9.73231 1.64136 9.71171 1.66196 9.69127 1.6824L6.75974 4.65483C6.59571 4.81886 6.59571 5.06482 6.75974 5.22885C6.84168 5.31079 6.94422 5.35183 7.04676 5.35183C7.1493 5.35183 7.25169 5.31079 7.33378 5.22885L9.58874 2.97389L9.58889 13.8797C9.58889 14.1053 9.77337 14.2897 9.99889 14.2897L9.99886 14.2897Z" fill="#FAFAFA"/>
</g>
</g>
</svg>
